<svg width="241" height="242" viewBox="0 0 241 242" fill="none" xmlns="http://www.w3.org/2000/svg">
<path d="M33.1424 76.4842C44.569 73.0475 56.9478 58.1079 61.7089 51.0677C68.4936 38.8964 46.7115 51.0677 35.9991 56.7953C25.2867 62.523 18.8593 80.7798 33.1424 76.4842Z" fill="#E7E8FF"/>
<path d="M223.109 180.854C223.109 193.016 216.35 204.798 209.61 213.233C204.125 220.098 195.433 223.095 186.659 223.095H29.7631C20.9579 223.095 14.8087 210.601 13.2894 201.906C10.5935 186.476 -3.5721 169.268 -1.13742 142.908C2.43341 104.247 26.7149 92.4334 52.0676 77.756C77.4202 63.0789 60.9946 41.6003 104.558 28.713C148.122 15.8258 194.186 58.4253 192.758 98.1609C191.329 137.897 223.109 143.624 223.109 180.854Z" fill="#0B4870"/>
<path d="M161.119 184.959C164.193 205.853 180.102 217.929 188.364 221.644C188.629 221.763 188.909 221.818 189.2 221.818H191.528C192.912 221.818 193.932 220.52 193.558 219.187C187.192 196.526 172.427 186.132 163.579 182.888C162.219 182.388 160.908 183.526 161.119 184.959Z" fill="#072940"/>
<path fill-rule="evenodd" clip-rule="evenodd" d="M163.334 183.557C162.519 183.258 161.686 183.916 161.824 184.855C164.852 205.432 180.535 217.342 188.657 220.994C188.822 221.068 189.001 221.105 189.2 221.105H191.528C192.459 221.105 193.114 220.24 192.872 219.38C186.572 196.957 171.984 186.728 163.334 183.557ZM160.414 185.062C160.13 183.136 161.918 181.519 163.825 182.218C172.869 185.534 187.811 196.095 194.245 218.994C194.752 220.799 193.367 222.531 191.528 222.531H189.2C188.817 222.531 188.437 222.458 188.072 222.294C179.671 218.516 163.535 206.275 160.414 185.062Z" fill="#326292"/>
<path fill-rule="evenodd" clip-rule="evenodd" d="M173.926 196.985C171.723 194.72 169.732 192.906 167.987 191.354L168.934 190.288C170.991 192.117 173.407 194.326 176.112 197.211C178.121 199.352 180.289 201.864 182.587 204.867V201.793H184.012V206.771C185.976 209.451 188.027 212.491 190.151 215.96C191.158 217.605 192.182 219.347 193.221 221.194L191.978 221.893C191.006 220.165 190.047 218.529 189.104 216.981L184.526 216.211L184.763 214.806L188.107 215.367C186.249 212.403 184.451 209.773 182.726 207.427C180.063 203.808 177.569 200.864 175.283 198.411H170.655V196.985H173.926Z" fill="#326292"/>
<path d="M186.061 148.677C172.745 176.806 182.3 207.652 189.531 221.016C189.896 221.69 190.604 222.092 191.371 222.092H194.718C195.842 222.092 196.776 221.211 196.845 220.089C199.025 184.612 193.613 159.877 189.523 148.796C188.924 147.172 186.801 147.113 186.061 148.677Z" fill="#326292"/>
<path d="M216.904 164.71C199.835 176.238 191.549 204.402 189.109 219.693C188.906 220.968 189.905 222.092 191.196 222.092H196.127C196.68 222.092 197.213 221.879 197.604 221.489C213.182 205.975 218.709 180.367 219.826 166.472C219.957 164.845 218.257 163.796 216.904 164.71Z" fill="#072940"/>
<path fill-rule="evenodd" clip-rule="evenodd" d="M219.116 166.416C219.202 165.344 218.129 164.743 217.303 165.301C208.933 170.953 202.663 180.731 198.174 191.074C193.692 201.403 191.025 212.207 189.814 219.806C189.682 220.629 190.324 221.379 191.196 221.379H196.127C196.498 221.379 196.848 221.237 197.102 220.984C204.786 213.331 210.016 203.16 213.464 193.142C216.91 183.127 218.561 173.312 219.116 166.416ZM216.505 164.119C218.386 162.849 220.713 164.346 220.537 166.53C219.974 173.528 218.302 183.463 214.812 193.606C211.323 203.743 206 214.133 198.108 221.994C197.578 222.522 196.862 222.805 196.127 222.805H191.196C189.486 222.805 188.13 221.307 188.405 219.581C189.633 211.888 192.329 200.965 196.867 190.507C201.399 180.063 207.806 169.994 216.505 164.119Z" fill="#326292"/>
<path d="M231.248 194.845C214.319 195.479 201.543 209.543 195.697 219.046C194.859 220.409 195.875 222.092 197.475 222.092H203.396C203.694 222.092 203.985 222.032 204.255 221.909C215.362 216.855 226.658 205.266 232.713 197.964C233.787 196.669 232.929 194.782 231.248 194.845Z" fill="#326292"/>
<path fill-rule="evenodd" clip-rule="evenodd" d="M188.375 153.265C188.186 158.951 188.157 164.443 188.25 169.687C188.321 173.746 188.466 177.656 188.666 181.392L191.719 176.456L192.931 177.206L188.808 183.871C189.096 188.586 189.471 192.998 189.894 197.056C190.395 201.871 190.964 206.186 191.539 209.908L194.184 205.539L195.404 206.277L191.886 212.086C192.588 216.336 193.277 219.669 193.84 221.919L192.456 222.265C191.871 219.921 191.157 216.458 190.437 212.058C189.767 207.968 189.091 203.062 188.505 197.484L183.354 193.005L184.29 191.929L188.295 195.411C187.937 191.771 187.621 187.866 187.371 183.732C187.107 179.369 186.916 174.752 186.828 169.924L183.231 164.613L184.412 163.814L186.791 167.326C186.744 162.787 186.789 158.072 186.95 153.217L188.375 153.265Z" fill="#072940"/>
<path fill-rule="evenodd" clip-rule="evenodd" d="M207.893 186.968C210.583 180.948 213.357 175.305 215.98 170.887L214.754 170.159C211.876 175.007 208.838 181.274 205.938 187.862C204.358 191.447 202.818 195.131 201.364 198.74L200.157 192.604L198.758 192.879L200.391 201.177C198.887 204.974 197.492 208.642 196.263 211.971C194.837 215.836 193.635 219.244 192.748 221.863L194.098 222.321C194.963 219.768 196.129 216.459 197.513 212.703L204.757 208.443L204.033 207.214L198.298 210.588C199.366 207.728 200.543 204.661 201.793 201.508C203.461 197.303 205.261 192.948 207.114 188.726L213.671 186.561L213.223 185.207L207.893 186.968Z" fill="#326292"/>
<path fill-rule="evenodd" clip-rule="evenodd" d="M228.817 198.882C224.906 200.577 220.931 202.893 217.138 205.462C214.749 207.081 212.436 208.797 210.261 210.517H213.996V211.942H208.489C203.448 216.07 199.318 220.056 196.961 222.579L195.919 221.606C198.353 219.001 202.606 214.901 207.785 210.677C210.383 208.558 213.218 206.405 216.175 204.393L218.286 199.847L219.58 200.448L218.442 202.896C221.645 200.845 224.96 198.999 228.251 197.573L228.817 198.882Z" fill="#072940"/>
<path d="M83.8493 178.067C77.2485 185.218 101.011 204.885 101.012 223.095H118.338H135.666C133.906 221.992 130.913 218.394 133.025 212.832C135.666 205.878 151.838 203.23 148.538 195.946C145.237 188.662 137.646 195.946 130.385 191.642C123.124 187.337 131.045 183.364 140.617 173.762C150.188 164.161 133.025 165.154 125.764 168.797C118.503 172.438 118.833 165.817 119.823 151.911C120.814 138.005 114.873 126.747 109.923 129.397C104.972 132.045 113.223 162.506 107.943 159.195C102.662 155.884 97.381 143.965 95.731 155.222C94.081 166.479 106.292 184.027 101.012 185.351C95.731 186.675 92.1002 169.127 83.8493 178.067Z" fill="#051723"/>
<path d="M85.5415 53.4531C85.5415 51.4847 87.1373 49.8892 89.1057 49.8892H220.257C222.226 49.8892 223.822 51.4847 223.822 53.4531V153.876C223.822 155.844 222.226 157.44 220.257 157.44H89.1057C87.1373 157.44 85.5415 155.844 85.5415 153.876V53.4531Z" fill="#072940"/>
<path fill-rule="evenodd" clip-rule="evenodd" d="M84.8291 53.4529C84.8291 51.091 86.7441 49.1763 89.1058 49.1763H220.257C222.62 49.1763 224.534 51.0909 224.534 53.4529V153.876C224.534 156.238 222.62 158.153 220.257 158.153H89.1058C86.7441 158.153 84.8291 156.238 84.8291 153.876V53.4529ZM89.1058 50.6018C87.5308 50.6018 86.2549 51.8783 86.2549 53.4529V153.876C86.2549 155.451 87.5308 156.728 89.1058 156.728H220.257C221.832 156.728 223.109 155.451 223.109 153.876V53.4529C223.109 51.8783 221.832 50.6018 220.257 50.6018H89.1058Z" fill="#326292"/>
<path d="M85.5415 53.4531C85.5415 51.4847 87.1373 49.8892 89.1057 49.8892H220.257C222.226 49.8892 223.822 51.4847 223.822 53.4531V67.3728H85.5415V53.4531Z" fill="#326292"/>
<path d="M102.944 58.3251C102.944 60.3509 101.302 61.9931 99.2759 61.9931C97.2501 61.9931 95.6084 60.3509 95.6084 58.3251C95.6084 56.2994 97.2501 54.6572 99.2759 54.6572C101.302 54.6572 102.944 56.2994 102.944 58.3251Z" fill="#072940"/>
<path d="M115.17 58.3251C115.17 60.3509 113.528 61.9931 111.502 61.9931C109.476 61.9931 107.834 60.3509 107.834 58.3251C107.834 56.2994 109.476 54.6572 111.502 54.6572C113.528 54.6572 115.17 56.2994 115.17 58.3251Z" fill="#072940"/>
<path d="M127.397 58.3251C127.397 60.3509 125.754 61.9931 123.729 61.9931C121.703 61.9931 120.061 60.3509 120.061 58.3251C120.061 56.2994 121.703 54.6572 123.729 54.6572C125.754 54.6572 127.397 56.2994 127.397 58.3251Z" fill="#072940"/>
<path fill-rule="evenodd" clip-rule="evenodd" d="M102.288 84.4633C102.349 82.1152 104.237 80.1699 106.622 80.1699H123.458C125.741 80.1699 127.649 81.9733 127.691 84.2808C127.841 92.6208 126.862 97.8633 122.672 104.158C121.899 105.319 120.586 105.967 119.223 105.967H103.374C100.045 105.967 98.0968 102.401 99.366 99.48C101.269 95.1033 102.122 90.8625 102.288 84.4633ZM106.622 81.5955C105.045 81.5955 103.754 82.8884 103.713 84.5C103.544 91.0325 102.667 95.4633 100.674 100.048C99.7552 102.162 101.214 104.541 103.374 104.541H119.223C120.142 104.541 120.994 104.106 121.485 103.368C125.464 97.3908 126.413 92.465 126.266 84.3067C126.239 82.801 124.989 81.5955 123.458 81.5955H106.622Z" fill="#F4AD5E"/>
<path fill-rule="evenodd" clip-rule="evenodd" d="M137.582 102.722C137.643 100.373 139.531 98.4282 141.916 98.4282H158.753C161.035 98.4282 162.944 100.232 162.986 102.539C163.136 110.879 162.156 116.122 157.967 122.416C157.193 123.577 155.881 124.225 154.518 124.225H138.669C135.339 124.225 133.392 120.658 134.661 117.738C136.564 113.362 137.416 109.121 137.582 102.722ZM141.916 99.8541C140.34 99.8541 139.049 101.147 139.007 102.758C138.838 109.291 137.962 113.721 135.969 118.307C135.05 120.42 136.509 122.799 138.669 122.799H154.518C155.437 122.799 156.289 122.363 156.779 121.626C160.759 115.649 161.707 110.723 161.56 102.565C161.534 101.059 160.284 99.8541 158.753 99.8541H141.916Z" fill="#F4AD5E"/>
<path fill-rule="evenodd" clip-rule="evenodd" d="M183.878 89.7616C183.938 87.4133 185.826 85.4683 188.211 85.4683H205.048C207.331 85.4683 209.239 87.2716 209.281 89.5791C209.431 97.9191 208.452 103.161 204.262 109.455C203.488 110.617 202.176 111.265 200.813 111.265H184.963C181.635 111.265 179.687 107.698 180.956 104.778C182.858 100.402 183.711 96.1608 183.878 89.7616ZM188.211 86.8933C186.635 86.8933 185.344 88.1866 185.303 89.7983C185.133 96.3308 184.257 100.761 182.263 105.347C181.345 107.46 182.804 109.839 184.963 109.839H200.813C201.732 109.839 202.583 109.403 203.075 108.665C207.053 102.689 208.002 97.7624 207.855 89.6049C207.828 88.0991 206.578 86.8933 205.048 86.8933H188.211Z" fill="#E7E8FF"/>
<path d="M111.237 81.0029C111.237 79.0345 112.833 77.439 114.801 77.439H115.091C117.059 77.439 118.655 79.0345 118.655 81.0029V81.2924C118.655 83.2606 117.059 84.8566 115.091 84.8566H114.801C112.833 84.8566 111.237 83.2606 111.237 81.2924V81.0029Z" fill="#F4AD5E"/>
<path d="M146.533 99.2606C146.533 97.2923 148.128 95.6973 150.097 95.6973H150.387C152.355 95.6973 153.95 97.2923 153.95 99.2606V99.5506C153.95 101.519 152.355 103.114 150.387 103.114H150.097C148.128 103.114 146.533 101.519 146.533 99.5506V99.2606Z" fill="#F4AD5E"/>
<path d="M192.828 86.3011C192.828 84.3327 194.423 82.7373 196.391 82.7373H196.681C198.65 82.7373 200.246 84.3327 200.246 86.3011V86.5911C200.246 88.5594 198.65 90.1544 196.681 90.1544H196.391C194.423 90.1544 192.828 88.5594 192.828 86.5911V86.3011Z" fill="#E7E8FF"/>
<path fill-rule="evenodd" clip-rule="evenodd" d="M119.979 92.4566H108.853V91.0308H119.979V92.4566ZM118.125 98.8141H106.999V97.3883H118.125V98.8141Z" fill="#F4AD5E"/>
<path fill-rule="evenodd" clip-rule="evenodd" d="M155.274 110.715H144.148V109.289H155.274V110.715ZM153.42 117.072H142.294V115.647H153.42V117.072Z" fill="#F4AD5E"/>
<path fill-rule="evenodd" clip-rule="evenodd" d="M149.119 134.312H103.556V132.886H149.119V134.312ZM125.923 142.788H103.556V141.362H125.923V142.788Z" fill="#E7E8FF"/>
<path d="M143.278 101.566C143.278 104.911 140.565 107.624 137.218 107.624C133.873 107.624 131.16 104.911 131.16 101.566C131.16 98.2198 133.873 95.5073 137.218 95.5073C140.565 95.5073 143.278 98.2198 143.278 101.566Z" fill="#326292"/>
<path d="M138.363 101.174H140.426V102.578H138.363V104.773H136.791V102.578H134.723V101.174H136.791V99.0708H138.363V101.174Z" fill="#072940"/>
<path d="M91.485 222.944L88.3475 197.494L21.7611 194.706L20.0181 222.944H91.485Z" fill="#326292"/>
<path d="M45.53 95.4548L44.1356 102.776L45.53 110.446C49.1324 110.911 56.4766 111.841 57.0344 111.841C57.5922 111.841 61.6826 108.354 63.6581 106.611L61.5665 95.4548C67.4232 93.5031 69.3522 84.8806 69.5846 80.8132C70.9791 64.0795 59.8234 61.9878 57.7316 61.9878C55.6399 61.9878 42.3925 61.9878 40.6494 75.9325C39.2549 87.0881 43.3221 93.5956 45.53 95.4548Z" fill="#EFCB96"/>
<path d="M128.345 114.997C126.888 117.142 121.098 123.066 120.435 124.124L123.044 130.209L130.186 131.867C131.793 129.588 136.39 127.218 137.483 123.662C138.358 120.816 135.013 116.951 133.374 116.323L138.375 109.472C139.043 108.558 138.854 107.277 137.952 106.594C137.069 105.926 135.818 106.068 135.108 106.917L128.345 114.997Z" fill="#EFCB96"/>
<path d="M49.3643 88.4835C47.9699 96.571 45.9944 97.431 45.1809 96.8502C35.4196 90.5752 35.6551 70.5259 41.6947 63.7312C47.2726 57.4562 51.4561 59.8965 62.9605 57.1075C74.4652 54.3186 78.2994 59.1992 76.2077 65.4743C73.1969 74.5076 63.6577 69.6578 61.2174 70.7037C58.7771 71.7495 55.6395 74.5385 54.245 80.1163C52.8506 85.6943 52.1533 84.6485 51.1075 81.5108C50.0616 78.3732 47.2726 73.8412 45.1809 79.4191C43.5076 83.881 47.2726 87.321 49.3643 88.4835Z" fill="#326292"/>
<path d="M19.321 204.816C23.5044 206.489 48.4888 206.443 60.458 206.21C69.9869 206.21 89.6727 205.583 92.1827 203.073C94.6927 200.563 93.9252 181.342 93.2285 173.788C96.366 177.623 102.641 179.715 108.218 175.88C113.797 172.045 132.971 136.487 132.971 132.303C132.971 128.119 124.953 121.148 121.466 121.148C117.98 121.148 102.292 140.321 99.8518 138.578C97.4118 136.835 97.0627 126.725 88.3477 114.175C81.3752 104.134 68.2438 101.392 63.247 101.276C62.7822 103.833 61.5039 108.946 54.5315 108.946C47.5592 108.946 44.654 103.833 43.7243 101.276C39.1923 101.973 30.8255 105.111 27.6879 107.551C24.5503 109.992 22.11 121.496 20.7155 129.514C19.321 137.533 14.0918 202.724 19.321 204.816Z" fill="#F4AD5E"/>
<path d="M41.808 170.694C42.7881 170.036 44.1168 170.296 44.7756 171.276L60.3095 194.386C60.9683 195.366 60.7078 196.695 59.7278 197.353L28.1902 218.553C27.21 219.212 25.8813 218.951 25.2225 217.971L9.68859 194.861C9.02976 193.881 9.29026 192.553 10.2703 191.893L41.808 170.694Z" fill="#072940"/>
<path fill-rule="evenodd" clip-rule="evenodd" d="M41.4103 170.103C42.7171 169.224 44.4886 169.572 45.3671 170.879L60.9011 193.989C61.7795 195.295 61.4322 197.067 60.1254 197.945L28.5877 219.144C27.2809 220.023 25.5094 219.675 24.631 218.369L9.09697 195.259C8.21855 193.952 8.56589 192.181 9.87272 191.302L41.4103 170.103ZM44.184 171.674C43.7447 171.021 42.859 170.847 42.2056 171.286L10.668 192.485C10.0146 192.924 9.84089 193.81 10.2801 194.464L25.8141 217.574C26.2533 218.227 27.1391 218.4 27.7925 217.961L59.3301 196.762C59.9835 196.323 60.1571 195.437 59.7179 194.784L44.184 171.674Z" fill="#326292"/>
<path d="M47.2107 196.448C44.9796 195.333 43.7245 194.124 43.3759 193.66C41.6328 195.635 37.9375 200.284 37.1007 203.073C36.0549 206.559 41.6328 211.788 43.3759 212.137C45.119 212.485 50.3482 209.348 51.3942 207.604C52.2308 206.21 50.3482 203.653 49.3024 202.724C49.8834 201.91 51.9519 200.981 51.3942 199.586C50.6969 197.843 49.9997 197.843 47.2107 196.448Z" fill="#EFCB96"/>
<path d="M1.54144 151.128C10.6055 125.331 21.9937 111.386 27.6878 107.551C43.8637 114.802 39.3084 133.117 35.0089 141.367C32.5685 145.434 27.6878 154.754 27.6878 159.495C27.6878 165.422 46.1646 188.779 45.1188 193.66C44.0729 198.54 36.7519 204.467 33.6144 203.77C30.4768 203.072 14.4403 188.779 5.37628 176.577C-1.87502 166.816 -0.20164 155.544 1.54144 151.128Z" fill="#F4AD5E"/>
<path d="M90.439 139.275L93.2273 174.137C94.3431 174.974 96.4815 176.577 97.4115 176.926C97.1323 174.137 92.6465 150.663 90.439 139.275Z" fill="#326292"/>
<path d="M1.89017 150.431C4.44675 154.381 8.79284 165.282 5.725 177.275C2.47125 173.788 -2.85102 163.539 1.89017 150.431Z" fill="#326292"/>
<path d="M93.2275 173.788C101.595 169.884 108.568 171.464 111.008 172.742C110.194 174.369 107.313 177.693 102.292 177.972C97.2717 178.251 94.1575 175.299 93.2275 173.788Z" fill="#326292"/>
<path d="M32.2202 160.192C31.9413 154.614 34.1957 144.853 35.3578 140.67C34.6605 141.716 32.7083 144.992 30.4771 149.734C27.6881 155.66 26.9909 159.495 28.734 162.982C29.4889 164.491 32.3893 169.474 35.5547 174.834L37.1009 173.536C34.6432 168.547 32.4009 163.807 32.2202 160.192Z" fill="#326292"/>
<path d="M55.9257 214.577L53.4854 223.293H55.9257V214.577Z" fill="#072940"/>
<path d="M54.1826 95.3491C57.5293 96.465 60.3415 95.8141 61.5035 95.3491L62.5494 100.23C58.0871 99.6725 55.1122 96.6275 54.1826 95.3491Z" fill="#326292"/>
</svg>
