<svg width="250" height="250" viewBox="0 0 250 250" fill="none" xmlns="http://www.w3.org/2000/svg">
<path d="M72.5986 65.8657C72.5986 62.3071 75.4834 59.4224 79.0419 59.4224H171.897C175.455 59.4224 178.34 62.3071 178.34 65.8657V200.016C178.34 203.574 175.455 206.459 171.897 206.459H79.0419C75.4834 206.459 72.5986 203.574 72.5986 200.016V65.8657Z" fill="#F1F1F1"/>
<path fill-rule="evenodd" clip-rule="evenodd" d="M54.6395 18.9004C54.6395 17.4366 55.8261 16.25 57.29 16.25H65.9738C67.4375 16.25 68.6242 17.4366 68.6242 18.9004C68.6242 20.0995 69.4344 21.1362 70.5655 21.5344C73.735 22.6503 76.6325 24.3433 79.132 26.4872C80.0433 27.2688 81.3478 27.4517 82.3875 26.8513C83.6577 26.1182 85.281 26.5533 86.0144 27.8233L90.3535 35.3382C91.086 36.6066 90.651 38.2286 89.3827 38.9608C88.3444 39.5602 87.851 40.779 88.071 41.9573C88.3694 43.5622 88.5252 45.2173 88.5252 46.9088C88.5252 48.6003 88.3694 50.2553 88.071 51.8602C87.851 53.0385 88.3444 54.2573 89.3827 54.8566C90.651 55.5888 91.0852 57.2108 90.3535 58.4793L86.0144 65.9942C85.281 67.2642 83.6577 67.6993 82.3875 66.9661C81.3478 66.3658 80.0433 66.5486 79.132 67.3303C76.6325 69.4742 73.735 71.1671 70.5655 72.283C69.4344 72.6812 68.6242 73.7179 68.6242 74.917C68.6242 76.3808 67.4375 77.5675 65.9738 77.5675H57.29C55.8261 77.5675 54.6395 76.3808 54.6395 74.917C54.6395 73.7179 53.8293 72.6812 52.6983 72.283C49.5287 71.1671 46.6311 69.4742 44.1317 67.3303C43.2205 66.5486 41.916 66.3658 40.8762 66.966C39.6063 67.6993 37.9824 67.2642 37.2492 65.9942L32.9104 58.4793C32.1781 57.2108 32.6127 55.5888 33.8811 54.8565C34.919 54.2572 35.4124 53.0384 35.193 51.8602C34.8944 50.2553 34.7382 48.6002 34.7382 46.9088C34.7382 45.2173 34.8944 43.5622 35.193 41.9573C35.4124 40.779 34.919 39.5602 33.8811 38.9609C32.6127 38.2286 32.1781 36.6067 32.9105 35.3383L37.2492 27.8233C37.9824 26.5533 39.6063 26.1182 40.8762 26.8514C41.916 27.4517 43.2205 27.2688 44.1317 26.4872C46.6311 24.3433 49.5287 22.6503 52.6983 21.5344C53.8293 21.1362 54.6395 20.0995 54.6395 18.9004ZM76.9785 46.9088C76.9785 55.5477 70.1154 62.5509 61.6492 62.5509C53.183 62.5509 46.3198 55.5477 46.3198 46.9088C46.3198 38.2698 53.183 31.2665 61.6492 31.2665C70.1154 31.2665 76.9785 38.2698 76.9785 46.9088Z" fill="#FAC22F"/>
<path fill-rule="evenodd" clip-rule="evenodd" d="M121.9 30.9206C122.33 30.2065 123.258 29.9766 123.972 30.4071L128.208 32.9609C128.922 33.3914 129.152 34.3193 128.722 35.0334C128.369 35.6184 128.46 36.3624 128.894 36.8893C130.112 38.3659 131.028 40.0439 131.617 41.8249C131.832 42.4742 132.414 42.9471 133.098 42.96C133.933 42.9758 134.597 43.6656 134.582 44.5008L134.488 49.443C134.472 50.2771 133.783 50.9406 132.949 50.9248C132.267 50.9119 131.667 51.3614 131.428 52.0007C131.102 52.8715 130.691 53.7248 130.193 54.55C129.696 55.3752 129.133 56.1366 128.516 56.8318C128.062 57.3421 127.944 58.0818 128.274 58.6794C128.677 59.4097 128.412 60.3287 127.682 60.7321L123.356 63.1223C122.624 63.5261 121.704 63.2609 121.301 62.5296C120.97 61.9311 120.28 61.6366 119.605 61.7499C117.755 62.0607 115.844 62.0345 113.969 61.6466C113.301 61.5083 112.601 61.7758 112.247 62.3607C111.817 63.0749 110.889 63.3048 110.175 62.8743L105.939 60.3204C105.225 59.8899 104.995 58.962 105.426 58.2479C105.778 57.6629 105.687 56.9189 105.253 56.392C104.035 54.9154 103.119 53.2374 102.531 51.4564C102.316 50.8071 101.733 50.3342 101.049 50.3213C100.214 50.3055 99.5499 49.6156 99.5657 48.7805L99.659 43.8383C99.6749 43.0041 100.364 42.3407 101.198 42.3565C101.881 42.3694 102.48 41.9199 102.719 41.2806C103.046 40.4098 103.457 39.5565 103.954 38.7313C104.452 37.9061 105.014 37.1446 105.632 36.4496C106.086 35.9392 106.203 35.1996 105.873 34.6019C105.47 33.8716 105.735 32.9526 106.465 32.5491L110.792 30.1591C111.523 29.7551 112.443 30.0205 112.847 30.7516C113.177 31.3502 113.868 31.6447 114.542 31.5314C116.392 31.2206 118.303 31.2468 120.178 31.6346C120.847 31.773 121.547 31.5055 121.9 30.9206ZM124.493 51.1136C122.023 55.2113 116.698 56.5306 112.601 54.0602C108.503 51.5899 107.184 46.2655 109.654 42.1677C112.124 38.07 117.449 36.7507 121.547 39.2211C125.644 41.6914 126.963 47.0158 124.493 51.1136Z" fill="#F15846"/>
<path fill-rule="evenodd" clip-rule="evenodd" d="M158.428 34.3107C158.808 34.1114 159.277 34.2575 159.476 34.6371L160.659 36.889C160.858 37.2687 160.712 37.738 160.332 37.9373C160.021 38.1006 159.863 38.4519 159.914 38.7995C160.056 39.7734 160.011 40.7553 159.796 41.6954C159.717 42.0381 159.847 42.4014 160.145 42.5892C160.508 42.8187 160.616 43.299 160.386 43.6621L159.029 45.8106C158.8 46.1733 158.32 46.2815 157.957 46.0522C157.661 45.8647 157.277 45.9027 157.001 46.12C156.626 46.416 156.218 46.682 155.779 46.9123C155.341 47.1426 154.89 47.3275 154.433 47.4686C154.098 47.5722 153.849 47.866 153.835 48.2169C153.817 48.6455 153.456 48.979 153.027 48.9619L150.488 48.86C150.059 48.8429 149.725 48.481 149.742 48.0518C149.756 47.7005 149.531 47.387 149.204 47.2572C148.308 46.901 147.474 46.3801 146.753 45.7101C146.496 45.471 146.116 45.4021 145.806 45.5654C145.426 45.7647 144.957 45.6185 144.757 45.239L143.575 42.987C143.376 42.6074 143.522 42.1381 143.901 41.9388C144.212 41.7755 144.371 41.4242 144.321 41.0767C144.178 40.1028 144.222 39.1208 144.438 38.1806C144.516 37.8379 144.386 37.4747 144.089 37.2869C143.726 37.0574 143.618 36.577 143.847 36.214L145.206 34.0654C145.435 33.7028 145.915 33.5946 146.277 33.8238C146.574 34.0114 146.957 33.9734 147.233 33.756C147.608 33.46 148.016 33.1941 148.455 32.9638C148.893 32.7335 149.344 32.5486 149.801 32.4075C150.136 32.304 150.385 32.01 150.399 31.6592C150.416 31.2305 150.778 30.897 151.206 30.9142L153.746 31.016C154.176 31.0332 154.509 31.395 154.492 31.8243C154.478 32.1756 154.703 32.489 155.03 32.6189C155.926 32.9751 156.76 33.496 157.481 34.166C157.738 34.405 158.117 34.474 158.428 34.3107ZM154.188 43.8821C152.01 45.026 149.316 44.1874 148.173 42.0091C147.029 39.8309 147.867 37.1378 150.046 35.994C152.224 34.8501 154.917 35.6887 156.061 37.867C157.205 40.0453 156.366 42.7383 154.188 43.8821Z" fill="#53B3CC"/>
<path fill-rule="evenodd" clip-rule="evenodd" d="M45.8738 160.836C46.2226 160.257 46.9742 160.072 47.5527 160.42L50.9845 162.489C51.563 162.837 51.7492 163.589 51.4005 164.167C51.1148 164.642 51.188 165.244 51.5401 165.672C52.5268 166.867 53.2686 168.227 53.7456 169.669C53.9195 170.196 54.3915 170.578 54.9454 170.589C55.6219 170.602 56.16 171.161 56.1472 171.837L56.0715 175.841C56.0587 176.517 55.5006 177.054 54.8248 177.041C54.2718 177.031 53.7865 177.395 53.5925 177.912C53.3281 178.618 52.9956 179.309 52.5926 179.978C52.1896 180.647 51.7336 181.263 51.2331 181.827C50.8657 182.24 50.7703 182.839 51.0377 183.323C51.3646 183.915 51.1499 184.659 50.5583 184.986L47.0532 186.922C46.4609 187.249 45.7155 187.034 45.3883 186.442C45.1204 185.957 44.5613 185.718 44.015 185.811C42.5165 186.062 40.968 186.041 39.4496 185.727C38.9077 185.615 38.3406 185.832 38.0549 186.305C37.7061 186.884 36.9545 187.07 36.376 186.722L32.9441 184.652C32.3657 184.303 32.1795 183.552 32.5282 182.973C32.8139 182.5 32.7406 181.897 32.3886 181.47C31.4018 180.274 30.6601 178.915 30.1831 177.472C30.0091 176.946 29.5372 176.562 28.9833 176.552C28.3067 176.539 27.7686 175.981 27.7815 175.304L27.8572 171.301C27.87 170.625 28.4281 170.087 29.1039 170.1C29.6568 170.111 30.1421 169.747 30.3362 169.228C30.6006 168.523 30.9331 167.832 31.3361 167.163C31.7391 166.495 32.1951 165.878 32.6956 165.315C33.0629 164.902 33.1583 164.302 32.8909 163.818C32.5641 163.227 32.7788 162.482 33.3704 162.156L36.8755 160.219C37.4677 159.892 38.2131 160.107 38.5404 160.699C38.8082 161.184 39.3673 161.422 39.9136 161.331C41.4122 161.079 42.9606 161.101 44.4791 161.415C45.021 161.527 45.5881 161.31 45.8738 160.836ZM47.9748 177.194C45.9736 180.513 41.6604 181.582 38.3409 179.581C35.0214 177.58 33.9526 173.267 35.9538 169.947C37.9551 166.627 42.2683 165.559 45.5878 167.56C48.9073 169.562 49.976 173.875 47.9748 177.194Z" fill="#F15846"/>
<path d="M66.9673 60.8602C66.9673 57.3017 69.852 54.417 73.4106 54.417H166.266C169.824 54.417 172.709 57.3017 172.709 60.8602V195.011C172.709 198.569 169.824 201.454 166.266 201.454H73.4106C69.852 201.454 66.9673 198.569 66.9673 195.011V60.8602Z" fill="white"/>
<path fill-rule="evenodd" clip-rule="evenodd" d="M66.3232 60.86C66.3232 56.9457 69.4965 53.7725 73.4109 53.7725H166.266C170.18 53.7725 173.354 56.9457 173.354 60.86V195.011C173.354 198.925 170.18 202.098 166.266 202.098H73.4109C69.4965 202.098 66.3232 198.925 66.3232 195.011V60.86ZM73.4109 55.0611C70.2082 55.0611 67.6119 57.6574 67.6119 60.86V195.011C67.6119 198.213 70.2082 200.809 73.4109 200.809H166.266C169.469 200.809 172.064 198.213 172.064 195.011V60.86C172.064 57.6574 169.469 55.0611 166.266 55.0611H73.4109Z" fill="#3E3D3D"/>
<path d="M89.4927 54.417H150.81L148.445 61.0385C147.987 62.3207 146.773 63.1766 145.411 63.1766H94.891C93.5293 63.1766 92.3152 62.3207 91.8568 61.0385L89.4927 54.417Z" fill="#3E3D3D"/>
<path fill-rule="evenodd" clip-rule="evenodd" d="M133.244 75.9565H153.359V96.0716H133.244V75.9565ZM136.466 79.1782V92.85H150.137V79.1782H136.466Z" fill="#E5E5E5"/>
<path d="M85.7383 75.6904H117.022V181.432H85.7383V75.6904Z" fill="#53B3CC"/>
<path fill-rule="evenodd" clip-rule="evenodd" d="M133.244 118.503H153.359V138.618H133.244V118.503ZM136.466 121.725V135.397H150.137V121.725H136.466Z" fill="#E5E5E5"/>
<path fill-rule="evenodd" clip-rule="evenodd" d="M133.244 161.05H153.359V181.166H133.244V161.05ZM136.466 164.271V177.944H150.137V164.271H136.466Z" fill="#E5E5E5"/>
<path fill-rule="evenodd" clip-rule="evenodd" d="M196.719 51.435C197.172 49.3485 199.23 48.0244 201.317 48.4776L237.898 56.4227C239.984 56.8759 241.308 58.9347 240.855 61.0211L229.436 113.597C228.983 115.683 226.924 117.007 224.838 116.554L188.257 108.609C186.17 108.155 184.846 106.097 185.299 104.01L196.719 51.435ZM201.044 49.7369C199.653 49.4348 198.28 50.3175 197.978 51.7085L186.559 104.284C186.257 105.675 187.139 107.048 188.53 107.349L225.111 115.294C226.502 115.597 227.874 114.714 228.177 113.323L239.595 60.7476C239.898 59.3566 239.015 57.9841 237.624 57.6821L201.044 49.7369Z" fill="#FAC22F"/>
<path d="M22.0781 83.1987L61.336 97.666L40.1749 155.088L0.916992 140.621L22.0781 83.1987Z" fill="#53B3CC"/>
<path d="M26.3938 91.0068L52.7509 100.724L48.1749 113.136L21.8179 103.419L26.3938 91.0068Z" fill="#46A4BC"/>
<path d="M35.5452 113.843L46.3514 117.827L41.9176 129.853L31.1113 125.869L35.5452 113.843Z" fill="#46A4BC"/>
<path d="M29.4104 130.49L40.2166 134.474L35.7828 146.501L24.9766 142.517L29.4104 130.49Z" fill="#46A4BC"/>
<path d="M20.1042 108.426L30.349 112.203L25.9152 124.229L15.6704 120.452L20.1042 108.426Z" fill="#46A4BC"/>
<path d="M13.9695 125.073L24.2141 128.85L19.7803 140.877L9.53564 137.099L13.9695 125.073Z" fill="#46A4BC"/>
<path d="M173.96 153.276H187.725V181.432H173.96V153.276Z" fill="#53B3CC"/>
<path d="M194.607 135.131H208.373V181.432H194.607V135.131Z" fill="#F15846"/>
<path d="M216.507 143.891H230.273V181.431H216.507V143.891Z" fill="#FAC22F"/>
<path d="M127.033 54.7296C127.033 58.7035 123.812 61.925 119.838 61.925C115.864 61.925 112.643 58.7035 112.643 54.7296C112.643 50.7557 115.864 47.5342 119.838 47.5342C123.812 47.5342 127.033 50.7557 127.033 54.7296Z" fill="#3E3D3D"/>
<path d="M40.6884 181.119L24.3001 230.859C23.3666 233.692 23.4449 236.762 24.5218 239.543L26.6104 244.939H59.7719L53.9541 235.458C52.2635 232.703 51.6677 229.419 52.2954 226.248C54.497 215.125 57.9546 197.988 59.4591 191.756C61.649 182.683 64.4646 183.622 68.2187 175.801C71.9728 167.979 72.9114 167.667 71.0343 165.789C69.5326 164.287 67.6973 166.415 66.9673 167.667C67.5931 162.035 66.0288 157.968 61.3361 156.404C56.6435 154.84 53.2021 154.214 49.4481 155.466C45.6939 156.717 43.1911 163.287 42.5655 169.543C42.0649 174.549 41.1056 179.346 40.6884 181.119Z" fill="#EFCB96"/>
<path d="M168.498 207.862L149.877 240.415L160.195 244.939H183.971L199.961 212.326C201.762 208.652 201.711 204.34 199.824 200.709L182.374 167.14C180.406 163.436 176.398 155.577 176.112 153.778C174.84 146.061 173.577 140.866 170.338 136.378C167.747 132.787 164.207 133.22 162.761 133.886C159.84 133.029 157.824 134.759 157.181 135.732C154.418 135.65 153.037 137.857 152.693 138.97L146.253 129.684C145.277 128.199 142.837 125.615 140.888 127.144C138.938 128.673 139.336 130.423 139.779 131.106L145.993 142.257L145.231 148.553C144.938 150.975 145.846 153.592 147.441 155.439C148.071 156.169 148.831 157.064 149.743 158.152C153.267 162.359 156.244 163.454 157.292 163.476L169.432 197.085C170.716 200.64 170.375 204.58 168.498 207.862Z" fill="#EFCB96"/>
<path d="M147.41 234.759L140.798 244.939H151.748H169.58L147.41 234.759Z" fill="#53B3CC"/>
<path fill-rule="evenodd" clip-rule="evenodd" d="M158.981 79.162L143.12 91.2298L138.145 82.4268L140.95 80.8416L144.108 86.4298L157.03 76.5981L158.981 79.162Z" fill="#53B3CC"/>
<path d="M184.591 57.258C184.248 55.5119 185.386 53.8191 187.132 53.4768L223.867 46.2771C225.613 45.9348 227.306 47.0729 227.648 48.8189L237.996 101.616C238.338 103.362 237.201 105.054 235.454 105.397L198.72 112.597C196.974 112.938 195.281 111.801 194.938 110.054L184.591 57.258Z" fill="#FAC22F"/>
<path fill-rule="evenodd" clip-rule="evenodd" d="M222.646 61.3558L194.374 67.0245L194.121 65.761L222.392 60.0923L222.646 61.3558ZM224.793 72.0673L196.521 77.736L196.268 76.4725L224.54 70.8038L224.793 72.0673ZM226.941 82.7788L198.669 88.4477L198.416 87.1835L226.687 81.5153L226.941 82.7788ZM229.046 93.2802L200.775 98.9485L200.521 97.6852L228.793 92.0169L229.046 93.2802Z" fill="#E9B11D"/>
<path fill-rule="evenodd" clip-rule="evenodd" d="M0 244.939C0 244.583 0.288477 244.295 0.64433 244.295H249.356C249.712 244.295 250 244.583 250 244.939C250 245.295 249.712 245.583 249.356 245.583H0.64433C0.288477 245.583 0 245.295 0 244.939Z" fill="#3E3D3D"/>
</svg>
