<svg width="226" height="250" viewBox="0 0 226 250" fill="none" xmlns="http://www.w3.org/2000/svg">
<g clip-path="url(#clip0_5_2792)">
<path opacity="0.1" d="M13.2179 219.887C41.5947 244.572 140.916 260.95 199.476 204.482C258.035 148.014 213.212 -6.25156 110.149 8.52639C7.08647 23.3043 27.9389 65.4697 19.1445 98.3944C10.3501 131.319 -15.1589 195.202 13.2179 219.887Z" fill="#2A94F4"/>
<path opacity="0.1" d="M156.92 242.823C175.747 242.823 191.009 240.83 191.009 238.371C191.009 235.912 175.747 233.918 156.92 233.918C138.093 233.918 122.831 235.912 122.831 238.371C122.831 240.83 138.093 242.823 156.92 242.823Z" fill="#2A94F4"/>
<path opacity="0.1" d="M60.407 241.794C81.555 241.794 98.6987 239.572 98.6987 236.832C98.6987 234.092 81.555 231.871 60.407 231.871C39.259 231.871 22.1152 234.092 22.1152 236.832C22.1152 239.572 39.259 241.794 60.407 241.794Z" fill="#2A94F4"/>
<path opacity="0.1" d="M111.422 250C132.57 250 149.713 248.463 149.713 246.566C149.713 244.669 132.57 243.131 111.422 243.131C90.2737 243.131 73.1299 244.669 73.1299 246.566C73.1299 248.463 90.2737 250 111.422 250Z" fill="#2A94F4"/>
<path d="M131.488 32.453C131.488 32.453 129.976 27.58 130.109 26.9416C130.191 26.5489 131.132 24.1323 131.449 23.3398C131.567 23.0449 131.686 22.7448 131.714 22.4275C131.743 22.1029 131.676 21.7766 131.596 21.4595C131.375 20.5793 131.055 19.7262 130.736 18.8757C130.651 18.6495 130.565 18.4218 130.438 18.2162C130.284 17.9672 130.073 17.7579 129.864 17.5526C128.668 16.3787 127.436 15.2423 126.17 14.145C126.103 14.0871 126.03 14.0264 125.942 14.0171C125.732 13.9945 125.018 15.4011 124.997 15.7262C124.914 17.0826 125.208 18.4645 125.839 19.6788C125.965 19.9206 126.105 20.16 126.165 20.4251C126.324 21.1284 125.891 21.8032 125.674 22.4865C125.479 23.1039 125.276 23.7641 125.193 24.4072C125.04 25.5861 126.07 26.3871 126.224 26.6042C126.308 26.7243 126.334 26.8744 126.36 27.0183C126.526 27.958 126.835 31.4732 126.835 31.4732" fill="#FCD2B1"/>
<path d="M151.228 41.8674C149.88 42.7882 149.726 44.9719 149.654 46.4546C149.567 48.2406 149.818 50.0272 150.172 51.7738C150.419 52.9893 150.741 54.248 151.563 55.1772C151.983 55.6515 152.511 56.0142 153.034 56.3717C153.331 56.5744 153.634 56.7803 153.979 56.879C154.324 56.9774 154.725 56.9522 155.003 56.7249C155.408 56.3929 155.415 55.7867 155.388 55.2635C155.216 51.8529 155.113 48.3811 155.981 45.0781" fill="#0B4870"/>
<path d="M142.17 228.547C142.17 228.547 142.141 231.765 142.368 232.906C142.596 234.048 146.276 233.68 146.629 233.03C146.982 232.38 146.542 227.063 146.542 227.063" fill="#FCD2B1"/>
<path d="M147.694 234.128C147.795 235.334 147.788 237.612 147.788 237.612L144.015 238.522L143.535 237.881C143.535 237.881 142.48 238.782 141.318 239.089C140.455 239.318 138.65 239.492 137.759 239.432C134.642 239.224 132.492 238.252 132.385 237.796C131.938 235.891 136.081 236.13 136.924 236.06C139.344 235.858 140.975 234.121 141.447 232.883C141.79 231.986 141.588 231.782 142.102 231.902C142.102 231.902 142.561 231.959 142.907 232.468C143.437 233.25 144.358 233.726 145.294 233.485C145.83 233.347 146.358 233.101 146.719 232.669C146.719 232.669 147.593 232.922 147.694 234.128Z" fill="#0B4870"/>
<path d="M149.374 189.06C149.017 183.407 153.582 175.842 153.582 175.842C153.582 175.842 141.254 169.069 141.069 166.962C141.069 166.962 139.381 178.593 138.775 182.698C137.723 189.826 141.28 230.489 141.28 230.489C141.28 230.489 143.86 231.205 147.287 230.572C147.287 230.572 147.927 214.866 150.496 204.226C151.713 199.181 149.8 190.458 149.374 189.06Z" fill="#0E538C"/>
<path d="M150.364 123.887C145.736 134.216 140.709 167.543 139.504 179.047C138.994 183.926 143.056 189.643 147.788 185.232C153.435 179.966 161.381 155.843 164.219 151.585C167.058 147.327 177.68 143.423 170.426 121.817" fill="#0E538C"/>
<path d="M171.146 228.749C171.146 228.749 171.563 233.286 171.727 234.438C171.89 235.591 175.585 235.428 175.974 234.799C176.363 234.17 176.219 228.836 176.219 228.836" fill="#FCD2B1"/>
<path d="M177.017 235.756C177.099 236.963 176.894 238.953 176.894 238.953L172.643 239.238L172.386 238.543C172.386 238.543 171.056 239.345 169.972 239.418L166.384 239.659C163.757 239.835 162.243 239.601 162.146 239.143C161.738 237.23 164.882 237.107 165.699 237.052C168.046 236.894 170.512 235.626 170.986 234.397C171.329 233.506 171.137 233.3 171.633 233.429C171.633 233.429 172.076 233.493 172.404 234.008C172.906 234.8 173.792 235.293 174.702 235.069C175.222 234.941 175.737 234.704 176.092 234.279C176.093 234.279 176.936 234.548 177.017 235.756Z" fill="#0B4870"/>
<path d="M161.904 188.392C162.688 192.412 173.187 190.91 172.961 187.351C172.638 182.29 176.184 175.75 177.544 151.663C177.7 148.911 180.457 148.507 181.542 141.023C182.613 133.526 178.173 125.228 178.173 125.228L162.019 122.916C162.019 122.916 155.81 136.924 157.094 150.892C158.378 164.859 160.976 183.66 161.904 188.392Z" fill="#0E538C"/>
<path d="M172.933 186.506C172.933 186.506 176.606 193.781 177.037 199.04C177.667 206.735 176.888 232.061 176.888 232.061C176.888 232.061 172.915 232.924 170.794 232.299C170.794 232.299 161.468 187.365 161.126 182.533C160.784 177.701 172.933 186.506 172.933 186.506Z" fill="#0E538C"/>
<path d="M144.108 75.1838C145.934 73.0891 151.73 69.6367 159.477 69.8812C164.814 70.0495 179.349 70.9306 180.973 74.501C181.803 76.3261 182.695 95.0168 181.479 101.461C180.565 106.307 178.227 118.312 178.227 121.209C178.227 124.106 179.783 125.348 179.057 126.189C177.43 128.074 166.309 128.865 161.087 128.865C156.44 128.865 148.529 127.626 148.128 126.137C147.532 123.927 149.035 124.01 149.238 121.693C149.442 119.376 150.537 104.096 149.176 101.876C147.016 98.3509 144.871 89.0666 144.705 86.4102C144.539 83.754 142.282 77.2784 144.108 75.1838Z" fill="#2A94F4"/>
<path d="M157.781 64.33C157.781 64.33 157.729 70.7763 157.469 71.0365C157.425 71.0799 157.354 71.1326 157.265 71.1905C156.443 71.7253 156.074 72.7371 156.306 73.6894C156.698 75.2885 157.377 77.3422 158.247 77.0844C159.219 76.7964 163.959 74.4648 166.786 73.0568C167.539 72.6816 167.812 71.8287 167.616 71.0103C167.609 70.9848 167.606 70.9587 167.606 70.9324C167.606 70.4125 168.854 60.2751 168.854 60.2751" fill="#FCD2B1"/>
<path d="M157.181 40.6387C156.013 41.4113 152.4 41.8262 151.928 43.5334C151.457 45.2403 151.755 48.8915 151.713 49.9399C151.629 52.027 151.829 54.1617 151.954 56.2431C152.117 58.9558 152.537 63.8848 155.666 65.1675C156.565 65.5358 156.943 65.6312 157.864 65.5024C159.088 65.3309 160.317 65.1885 161.541 65.0152C163.438 64.7463 165.545 64.4673 167.134 63.3031C169.256 61.7478 169.483 58.0507 169.362 55.6299L168.671 41.7646L157.181 40.6387Z" fill="#FFE3CA"/>
<path d="M156.99 83.0335C157.269 77.6387 138.678 56.4843 138.905 55.5661C139.131 54.6481 130.564 27.7083 130.564 27.7083L125.695 28.0853C125.695 28.0853 127.287 50.8664 129.461 58.4813C130.991 63.8418 142.919 79.6329 142.919 79.6329C142.919 79.6329 156.712 88.428 156.99 83.0335Z" fill="#2A94F4"/>
<path d="M169.697 118.722L197.737 124.015C197.918 124.049 198.09 124.12 198.242 124.224C198.394 124.328 198.522 124.462 198.62 124.618C198.717 124.774 198.781 124.948 198.808 125.13C198.835 125.312 198.823 125.498 198.775 125.675L195.018 145.07C194.93 145.393 194.723 145.67 194.439 145.847C194.156 146.024 193.816 146.088 193.487 146.026L165.447 140.733C165.266 140.699 165.094 140.628 164.942 140.524C164.791 140.42 164.662 140.286 164.564 140.13C164.467 139.974 164.403 139.8 164.376 139.618C164.35 139.436 164.361 139.25 164.41 139.073L168.166 119.678C168.254 119.355 168.461 119.078 168.745 118.901C169.028 118.723 169.368 118.66 169.697 118.722Z" fill="#0B4870"/>
<path d="M170.028 120.211L196.875 125.279L193.156 144.537L166.309 139.469L170.028 120.211Z" fill="#F7F7F7"/>
<path d="M169.315 138.46L172.248 122.066M171.847 138.951L174.78 122.557M175.491 139.697L178.423 123.303M179.134 140.443L182.067 124.049M182.777 141.19L186.066 124.795M186.421 141.936L189.709 125.542M190.064 142.682L193.487 126.288" stroke="#D3D3D3" stroke-width="0.528" stroke-miterlimit="10" stroke-linecap="round" stroke-linejoin="round"/>
<path d="M184.563 132.82C184.563 132.82 183.454 135.082 182.86 136.231C182.472 136.981 179.527 139.489 178.346 141.488C177.776 142.452 177.274 143.541 177.419 144.652C177.565 145.763 178.609 146.816 179.704 146.581C180.016 146.514 180.373 146.361 180.625 146.557C180.753 146.656 180.809 146.819 180.888 146.96C181.13 147.395 181.652 147.655 182.145 147.587C182.638 147.519 183.07 147.128 183.186 146.644C183.939 147.348 185.249 147.334 185.986 146.614C185.548 146.252 185.22 145.693 185.31 145.132C185.397 144.59 185.833 144.186 186.167 143.752C186.759 142.977 187.069 142.024 187.046 141.05C187.028 140.361 186.842 139.688 186.766 139.004C186.611 137.6 186.934 136.147 187.669 134.941" fill="#FCD2B1"/>
<path d="M176.116 87.5152C176.964 90.5361 189.87 110.404 189.87 110.404L182.961 135.587L186.9 138.052C186.9 138.052 199.184 117.64 199.222 111.877C199.26 106.113 190.236 84.9813 183.639 76.3411C181.539 73.5908 177.329 72.2026 177.329 72.2026" fill="#2A94F4"/>
<path d="M169.948 52.993C168.986 52.7872 168.204 52.4929 167.934 53.4387C167.79 53.9401 167.808 54.5615 167.38 54.8591C166.952 55.1552 166.323 54.8915 166.048 54.4505C165.773 54.0094 165.756 53.4611 165.747 52.9416L165.688 49.4932C165.669 48.3675 165.614 47.142 164.882 46.2861C164.513 45.8539 164.004 45.5627 163.478 45.3464C161.764 44.6407 159.84 44.6592 158 44.875C156.159 45.0909 154.334 45.4927 152.482 45.5177C151.703 45.5279 150.908 45.468 150.187 45.1753C149.022 44.7028 148.15 43.6429 147.743 42.4529C147.336 41.2628 147.361 39.9563 147.635 38.7289C147.897 39.0977 148.2 39.4356 148.539 39.7358C148.568 39.1158 148.723 38.5082 148.994 37.9495C150.419 40.5842 161.902 35.7621 165.064 36.089C167.255 36.3153 169.019 36.3543 169.981 39.4679C170.102 39.6511 170.316 39.7463 170.517 39.837C172.721 40.8344 174.077 42.4834 175.215 45.2208C176.607 48.5699 175.833 52.9482 174.806 56.4262C174.547 57.3004 174.44 57.8961 173.924 58.6475C173.407 59.3986 172.291 60.0518 171.387 60.1694C170.484 60.2872 168.832 60.9126 168.531 60.0522C168.315 59.4367 169.275 57.8952 169.477 57.2754" fill="#0B4870"/>
<path d="M167.93 57.2554C167.93 57.2554 167.982 57.8771 168.491 58.2117C168.937 58.5052 169.559 58.2367 169.951 57.9494C171.07 57.131 171.532 55.6255 171.352 54.2872C171.14 52.71 169.853 51.4873 168.621 52.3217C167.899 52.8101 167.7 53.8761 167.981 54.7003" fill="#FFE3CA"/>
<path d="M165.117 133.315L167.544 133.889L169.296 124.815L166.863 124.301L165.117 133.315Z" fill="#0B4870"/>
<path d="M163.499 130.522L166.28 131.048L167.1 126.708L164.319 126.183C163.121 125.956 161.966 126.744 161.739 127.943C161.685 128.228 161.688 128.52 161.747 128.804C161.807 129.088 161.921 129.357 162.085 129.597C162.248 129.837 162.457 130.042 162.7 130.2C162.942 130.359 163.214 130.469 163.499 130.522ZM163.707 129.575C163.544 129.547 163.389 129.488 163.251 129.399C163.112 129.311 162.992 129.196 162.898 129.061C162.804 128.926 162.738 128.773 162.703 128.613C162.669 128.452 162.667 128.285 162.698 128.124C162.728 127.962 162.79 127.808 162.881 127.671C162.972 127.533 163.089 127.416 163.226 127.324C163.362 127.232 163.516 127.169 163.678 127.138C163.839 127.106 164.005 127.107 164.166 127.14C164.485 127.206 164.764 127.394 164.945 127.664C165.125 127.934 165.193 128.264 165.133 128.584C165.072 128.903 164.889 129.185 164.622 129.371C164.356 129.556 164.027 129.63 163.707 129.575Z" fill="#0B4870"/>
<path d="M114.914 18.2308C115.12 16.498 111.131 15.3254 110.731 16.7579C110.688 16.9115 110.343 17.3333 110.249 17.9779C110.169 18.5274 109.929 19.1679 109.859 19.7207C109.796 20.2229 109.916 22.5729 108.743 22.824C106.946 23.2091 108.085 20.0824 106.818 19.381C106.42 19.1609 105.998 21.585 105.968 22.9561C105.938 24.3268 105.931 25.0138 106.059 25.8209C106.172 26.6285 106.618 27.7708 106.556 28.2599C106.455 29.0472 105.535 30.6645 105.535 30.6645L110.075 31.6978C110.075 31.6978 111.148 29.2028 111.696 28.6225C113.074 27.2476 113.937 25.6695 114.444 23.7607C114.762 22.565 114.871 21.3168 114.962 20.0866C114.963 20.0864 114.893 18.4095 114.914 18.2308Z" fill="#FCD2B1"/>
<path d="M72.2301 56.1771C72.2301 56.1771 86.6261 56.05 94.4414 47.2908C100.677 38.5542 106.7 28.8887 107.15 27.9917C108.377 28.4607 111.014 29.6671 111.014 29.6671C111.014 29.6671 102.777 48.0979 99.5681 52.3075C96.3593 56.5169 90.0474 63.4114 76.7065 66.8339C70.3157 59.497 72.2301 56.1771 72.2301 56.1771ZM81.6119 228.027C81.6119 228.027 82.4401 229.917 82.3985 231.185C82.3568 232.454 78.3331 232.713 77.8377 232.077C77.3426 231.44 76.8691 225.643 76.8691 225.643" fill="#FCD2B1"/>
<path d="M76.8193 233.236C76.8737 234.554 77.3289 236.687 77.3289 236.687L81.9702 236.496L82.1669 235.712C82.1669 235.712 83.7035 236.424 84.8859 236.376L88.8036 236.214C91.6714 236.096 93.2846 235.664 93.3364 235.156C93.5525 233.035 90.1304 233.272 89.2385 233.308C86.6768 233.414 83.8543 232.329 83.1965 231.054C82.7188 230.128 82.9031 229.881 82.3804 230.08C82.3804 230.08 81.9074 230.202 81.6132 230.799C81.1617 231.716 80.26 232.354 79.2473 232.219C78.6683 232.142 78.0824 231.946 77.6477 231.527C77.6474 231.527 76.7652 231.918 76.8193 233.236Z" fill="#0B4870"/>
<path d="M36.2746 225.509C36.2746 225.509 35.5559 228.943 35.0472 230.105C34.539 231.268 30.7051 230.019 30.4808 229.244C30.2561 228.47 31.964 222.909 31.964 222.909" fill="#FCD2B1"/>
<path d="M29.1056 229.944C28.6678 231.189 28.042 233.592 28.042 233.592L31.6465 235.545L32.3153 234.996C32.3153 234.996 33.143 236.223 34.246 236.853C35.0651 237.322 36.8609 237.981 37.7883 238.153C41.0327 238.755 43.5009 238.298 43.7368 237.845C44.7234 235.955 40.4218 235.115 39.5794 234.819C37.161 233.968 35.9763 231.707 35.8372 230.279C35.7364 229.243 35.9989 229.081 35.4398 229.072C35.4398 229.072 34.9552 229.011 34.4607 229.456C33.7019 230.14 32.6275 230.399 31.7371 229.899C31.2279 229.612 30.7561 229.214 30.5073 228.664C30.5078 228.664 29.5434 228.699 29.1056 229.944Z" fill="#0B4870"/>
<path d="M48.8564 134.311C48.8564 134.311 41.928 119.469 52.4775 108.051C52.4775 108.051 62.0373 111.867 69.5747 112.064C75.5099 112.22 78.4902 111.483 78.4902 111.483C78.4902 111.483 80.2751 122.419 80.2536 139.683L48.8564 134.311ZM76.4827 229.698C76.6736 229.704 76.864 229.696 77.0406 229.689C80.9567 229.568 83.167 229.015 83.167 229.015L83.1205 227.886C82.1911 210.607 83.1208 182.263 83.1609 173.316C83.1623 172.69 83.1252 172.12 83.0363 171.606C82.0875 165.097 75.3675 166.231 72.7743 172.355C72.166 173.783 71.6995 175.354 71.3607 177.043C70.9407 179.075 70.691 181.277 70.5827 183.61C69.8782 198.588 74.8686 218.6 76.4827 229.698Z" fill="#FFBE55"/>
<path d="M61.0864 140.788C61.1207 140.963 61.1694 141.152 61.218 141.34C63.0369 149.149 68.7652 170.22 71.36 177.029L71.3607 177.043C71.7403 177.994 72.929 178.762 74.4269 179.095C77.8629 179.879 82.8806 178.406 83.0363 171.606C83.0596 170.856 83.0127 170.042 82.9084 169.161C82.2333 163.675 79.771 133.306 79.4056 130.381C79.0537 127.454 78.3474 123.195 76.7755 122.715C68.9315 120.356 58.608 129.862 61.0864 140.788ZM46.9786 172.976C52.0117 167.835 59.3904 169.867 56.3034 177.65C53.0018 185.973 42.6878 209.126 37.2559 225.551L36.8783 226.62C36.8783 226.62 34.4107 226.297 30.4102 224.815C32.8797 214.197 34.2452 196.017 39.7572 183.16C41.5294 179.027 44.37 175.641 46.9786 172.976Z" fill="#FFBE55"/>
<path d="M74.4803 123.372C74.9965 111.171 60.1737 119.87 53.0706 124.184C50.0807 126 49.1002 129.427 48.8209 132.626C48.5392 135.826 45.9612 168.754 45.4189 174.764C44.1954 188.314 55.6638 180.46 56.6226 176.68C59.0408 167.136 74.1991 130.02 74.4803 123.372Z" fill="#FFBE55"/>
<path d="M72.4616 46.4335C72.4928 47.3522 72.5281 50.9439 70.6202 51.8014C68.7119 52.6723 67.488 53.0377 67.5431 53.3324C67.5645 53.4661 67.7531 54.0983 67.9554 54.7178C68.3941 56.1044 69.0591 56.4488 69.0591 56.4488L69.3352 61.0469L65.9064 64.4659L64.7865 65.5799L63.1036 64.0394L57.6171 59.0422C57.6171 59.0422 59.878 56.2567 58.3169 53.2715C58.0936 52.8508 55.5935 50.0821 53.5996 47.2931C52.4391 45.6529 51.4511 44.0195 51.1903 42.8525C50.4748 39.6603 49.8723 36.2999 51.7043 34.2954C53.523 32.2907 66.0856 24.0493 68.6004 33.7195C68.6006 33.7197 72.4301 45.5148 72.4616 46.4335Z" fill="#FFE3CA"/>
<path d="M57.601 43.6437C57.601 43.6437 60.6184 44.7327 60.3083 40.6377C60.2915 40.4139 60.4514 40.2137 60.688 40.1435C61.5712 39.8823 63.5192 38.8498 62.5272 34.8962C62.4444 34.5662 62.6859 34.2416 63.0574 34.1912C64.3387 34.0176 66.9851 33.6757 67.5727 33.7285C67.5727 33.7285 67.8632 33.6998 68.2982 33.7721C68.4398 33.7957 68.5626 33.8757 68.627 33.9915C68.8314 34.3576 70.0014 38.0895 70.0014 38.0895C70.0014 38.0895 71.3961 37.0381 71.2468 36.3287C71.0974 35.6193 70.4398 34.1149 70.5152 33.7374C70.5906 33.3596 71.6635 32.9153 71.6715 32.0656C71.689 30.1445 70.9392 22.7905 65.1062 27.3121C64.3434 27.9034 63.6664 28.6147 62.9904 28.8632C62.1084 29.1873 61.1117 28.5622 59.1917 28.6975C56.5092 28.8863 44.9806 31.5826 48.6717 41.8348C52.3623 52.0869 58.4364 53.5496 58.4364 53.5496C58.4364 53.5496 56.4448 44.9474 57.601 43.6437Z" fill="#0B4870"/>
<path d="M57.601 43.6435C57.601 43.6435 57.0302 41.8812 55.5564 42.389C53.5779 43.0708 53.7561 48.0398 58.0656 47.3852C58.0656 47.3852 57.489 45.3539 57.601 43.6435Z" fill="#FFE3CA"/>
<path d="M85.0815 121.817C85.0815 121.817 63.316 125.703 43.7222 122.066C44.6724 116.013 48.3894 98.9074 48.6409 92.0027L48.668 91.2989C48.8236 86.8902 48.9044 83.7419 49.0024 83.6129C49.1991 83.3412 48.5016 69.2727 49.6569 63.7586C49.8686 62.7429 50.149 62.0223 50.5058 61.7302C52.7996 59.8235 55.4958 57.8258 58.5048 56.3323C58.5048 56.3323 65.516 63.8746 69.0934 55.528C73.0298 55.1735 75.0338 55.9683 76.1725 59.9082C82.4743 81.7972 85.0815 121.817 85.0815 121.817Z" fill="#2A94F4"/>
<path d="M72.0308 55.5802C72.0308 55.5802 78.5507 55.6911 85.2016 52.7432C88.9128 57.107 91.1564 65.0605 91.1564 65.0605C91.1564 65.0605 82.184 70.7633 75.6253 71.3116C74.2184 61.752 72.0308 55.5802 72.0308 55.5802Z" fill="#2A94F4"/>
<path d="M83.591 69.5426L84.369 71.0829L82.862 70.2419L71.1846 58.0712L71.9135 57.3716L83.591 69.5426Z" fill="#0B4870"/>
<path d="M46.1992 83.5654C46.1992 83.5654 49.2166 93.976 57.0639 98.8775C59.3498 100.305 62.2188 99.507 64.0154 97.4975C69.3873 91.4894 74.7578 77.955 76.4759 72.8447C73.3264 71.1727 72.3198 71.4331 72.3198 71.4331C72.3198 71.4331 64.7009 82.0104 60.3299 89.0883L57.0651 83.3948" fill="#FCD2B1"/>
<path d="M72.0957 71.8276C72.0957 71.8276 73.4965 69.5641 73.5621 67.8492C73.6279 66.1344 72.8151 63.1699 74.4812 61.627C75.1012 61.0527 77.2709 60.1735 79.7138 60.5776C83.3475 61.179 80.4741 67.4801 80.3086 68.9112C80.0601 71.0624 77.0611 71.9725 76.4089 73.0447C75.9448 73.8071 72.0957 71.8276 72.0957 71.8276Z" fill="#FCD2B1"/>
<path d="M52.3028 60.2915C52.3028 60.2915 44.2166 65.5885 43.871 74.6063C43.6039 81.5789 48.2141 91.7527 48.2141 91.7527C48.2141 91.7527 56.2145 92.635 60.4136 86.0963C59.1698 82.92 58.0815 80.0988 55.6918 76.3494" fill="#2A94F4"/>
<path d="M105.952 5.03344L108.491 31.8923C108.508 32.0654 108.56 32.2333 108.644 32.3853C108.729 32.5373 108.844 32.6702 108.982 32.7755C109.121 32.8809 109.279 32.9564 109.448 32.9973C109.617 33.0382 109.793 33.0437 109.964 33.0133L128.507 29.7254C128.818 29.6703 129.098 29.5 129.289 29.2484C129.481 28.9968 129.57 28.6823 129.541 28.3676L127.001 1.50871C126.985 1.33558 126.933 1.16772 126.848 1.01572C126.764 0.86372 126.649 0.73087 126.51 0.625549C126.372 0.520227 126.213 0.444718 126.044 0.403783C125.875 0.362848 125.699 0.357374 125.528 0.387706L106.985 3.67535C106.674 3.73051 106.395 3.90085 106.203 4.15249C106.012 4.40413 105.922 4.71863 105.952 5.03344Z" fill="#FFBE55"/>
<path d="M107.325 5.4745L109.756 31.1904L128.168 27.9256L125.736 2.20996L107.325 5.4745Z" fill="#F7F7F7"/>
<path d="M124.454 4.58545L108.808 7.35973M124.696 7.01227L109.05 9.78655M119.093 10.9346L109.316 12.6684M119.07 13.0968L109.292 14.8306M119.046 15.2588L109.269 16.9926M126.007 24.872L116.229 26.6058" stroke="#D3D3D3" stroke-width="0.528" stroke-miterlimit="10" stroke-linecap="round" stroke-linejoin="round"/>
<path d="M118.271 112.018C119.443 111.466 120.313 110.445 121.145 109.454L123.609 106.52C123.934 106.135 124.273 105.713 124.31 105.21C122.933 105.098 122.045 106.887 120.668 106.993C121.311 104.723 122.23 102.54 123.404 100.493C123.69 99.9946 124.001 99.4129 123.798 98.875C122.31 99.4434 121.057 100.502 119.972 101.669C119.21 102.49 118.516 103.372 117.899 104.307C116.081 107.057 114.955 110.214 114.189 113.421M112.345 135.519L97.5827 123.064C97.5827 123.064 90.7125 132.382 93.3006 141.372C94.5733 145.792 96.171 147.984 96.8647 150.082C97.5127 152.041 101.956 179.779 101.625 181.807C101.293 183.835 98.9072 189.509 97.9967 195.476C96.9016 202.653 97.0876 226.036 96.2382 232.236C95.389 238.435 101.114 239.484 101.429 237.387C104.12 219.459 111.228 191.522 112.222 182.56C113.217 173.597 112.813 157.184 112.345 135.519Z" fill="#FCD2B1"/>
<path d="M102.423 231.629C102.423 231.629 101.049 238.134 101.419 238.963C101.789 239.792 103.119 242.202 104.48 243.073C105.91 243.987 109.075 245.073 109.328 245.47C109.581 245.866 108.808 245.377 108.356 245.731C107.191 246.648 104.974 246.669 103.651 246.451C99.3594 245.743 99.8979 245.336 97.3978 245.032C96.9661 244.98 96.1665 245.618 94.9726 245.007C93.7784 244.396 93.1985 243.292 93.3012 242.253C93.478 240.461 94.4845 238.985 95.2009 237.659C95.9172 236.334 96.4217 230.27 96.4217 230.27" fill="#FCD2B1"/>
<path d="M109.582 245.568C109.605 245.081 107.742 244.344 106.91 243.961C106.078 243.577 104.758 243.24 105.223 243.491C105.688 243.742 104.829 244.719 104.053 244.633C92.6943 243.379 94.7093 239.134 94.6122 238.711C94.194 238.977 93.2212 241.078 93.024 241.74C92.846 242.337 92.7442 243.408 92.6962 244.052C92.4929 246.774 109.378 249.85 109.582 245.568Z" fill="#0B4870"/>
<path d="M132.503 246.841C132.186 246.491 128.766 245.934 127.162 245.264C125.634 244.626 123.782 242.573 123.422 241.702C123.062 240.831 123.145 236.417 123.191 234.564C123.511 221.798 125.87 190.603 126.211 183.133C126.805 170.148 125.119 156.745 120.123 135.9L101.52 121.624C101.52 121.624 96.3104 131.309 98.0544 140.569C99.0662 145.942 103.523 146.768 104.276 148.856C105.03 150.944 116.285 184.611 116.285 184.611C116.285 184.611 114.095 191.889 113.968 199.863C113.859 206.67 116.946 227.203 117.519 235.025C117.586 236.554 117.849 240.213 117.399 241.378C116.847 242.806 115.44 244.482 115.511 246.282C115.552 247.326 115.664 247.074 116.983 247.483C118.301 247.892 119.678 248.379 120.131 248.36C122.753 248.251 123.5 248.283 128.028 248.281C129.424 248.281 131.429 249.281 132.502 248.184C132.919 247.76 132.82 247.192 132.503 246.841Z" fill="#FCD2B1"/>
<path d="M132.893 248.439C133.035 247.824 133.107 247.045 132.779 246.897C132.324 246.692 130.708 245.987 129.795 245.744C128.882 245.502 127.473 245.384 127.988 245.556C128.503 245.728 127.757 246.877 126.942 246.877C116.722 246.877 116.983 242.968 116.823 242.565C116.429 242.896 115.263 245.133 115.153 245.819C115.054 246.439 115.041 247.523 115.142 248.159C115.32 249.294 132.467 250.277 132.893 248.439Z" fill="#0B4870"/>
<path d="M97.9718 121.497C96.7094 122.884 92.21 130.381 92.1619 136.484C92.1143 142.586 94.2851 146.499 94.48 147.773C95.9071 157.095 97.2869 168.338 97.2869 168.948C97.2869 169.558 102.579 173.088 109.695 172.64C122.844 171.812 127.956 168.368 127.956 168.368C127.956 168.368 127.334 145.787 125.306 134.653C124.29 129.072 119.867 120.092 119.867 120.092" fill="#0E538C"/>
<path d="M85.9751 97.1144C85.9751 97.1144 88.0927 107.637 88.6483 109.509C89.2042 111.382 91.9516 123.271 94.5555 123.064C97.1597 122.857 111.422 110.95 111.422 110.95L109.402 106.911L96.8477 112.895C96.8477 112.895 95.7134 99.3044 94.7189 96.0674" fill="#FFBE9D"/>
<path d="M94.4799 82.53C94.4799 82.53 90.317 82.9736 88.2061 84.5886C82.8234 88.707 86.9889 103.656 86.9889 103.656C86.9889 103.656 86.7236 104.454 90.337 104.251C93.9507 104.048 96.8479 103.02 96.8479 103.02L95.8037 90.7712" fill="#FFBE55"/>
<path d="M114.376 54.9488C116.885 58.2014 116.388 62.7755 115.77 66.836L114.831 72.9952C114.683 73.9706 114.485 75.0363 113.725 75.6657C112.958 76.3001 111.863 76.2894 110.869 76.2467L110.899 81.344C107.992 81.4145 105.085 81.4261 102.177 81.3787C102.175 80.1847 101.918 79.0048 101.423 77.918C100.001 77.8902 99.0506 76.464 98.4938 75.1551C97.8516 73.6453 97.384 72.0684 96.9322 70.4912C96.3328 68.3983 95.7545 66.2725 95.6997 64.096C95.6449 61.9196 96.1627 59.6573 97.5448 57.9753C98.4873 56.8284 99.7721 56.0147 101.088 55.3277C102.891 54.3869 105.057 53.6441 106.917 54.4681" fill="#FFE3CA"/>
<path d="M111.368 70.4426C111.024 68.7343 111.049 67.7708 111.608 66.6332C111.793 66.2561 112.038 65.9007 112.372 65.6662C112.824 65.3491 113.425 65.2868 113.926 65.5052C114.253 65.6478 114.522 65.9136 114.706 66.233C115.299 63.9385 115.423 61.4933 115.252 59.1105C114.981 55.3317 112.703 52.4106 109.377 51.0446C103.219 48.5149 94.372 51.0141 91.8709 57.0587C89.982 61.6242 90.9396 68.2135 94.5556 72.0406C97.7569 75.4288 102.362 75.9265 106.611 75.2286C108.786 74.8716 112.142 75.0856 113.267 72.1286C113.354 71.9001 113.158 71.6728 112.927 71.6906C112.045 71.7582 111.431 70.7586 111.368 70.4426Z" fill="#0B4870"/>
<path d="M111.841 62.405C112.069 62.7637 112.016 63.2458 112.23 63.6128C112.591 64.2293 113.071 64.4522 113.719 64.7527C114.764 65.2372 114.519 66.7588 114.489 67.4393C115.278 66.9152 115.406 65.4882 115.596 64.7632C115.81 63.9493 115.947 63.1142 116.184 62.3068C116.414 61.5213 116.814 60.7811 116.888 59.9549C117.143 57.0996 115.352 53.7436 113.187 52.141C111.611 50.9742 109.205 51.0225 107.424 52.2091C106.675 52.7089 106.111 53.4638 105.779 54.3013C105.637 54.6611 105.538 55.08 105.715 55.4239M124.922 78.7219L118.933 105.027C118.895 105.197 118.892 105.373 118.924 105.544C118.957 105.714 119.025 105.877 119.123 106.02C119.222 106.163 119.349 106.285 119.497 106.376C119.645 106.468 119.81 106.528 119.982 106.553L138.623 109.23C138.936 109.275 139.254 109.2 139.515 109.021C139.775 108.842 139.959 108.572 140.029 108.263L146.018 81.9577C146.056 81.7882 146.059 81.6124 146.027 81.4416C145.994 81.2708 145.926 81.1086 145.828 80.9653C145.729 80.822 145.602 80.7006 145.454 80.6089C145.307 80.5172 145.141 80.457 144.969 80.4323L126.328 77.7556C126.016 77.7106 125.697 77.785 125.437 77.964C125.176 78.1431 124.992 78.4136 124.922 78.7219Z" fill="#0B4870"/>
<path d="M126.088 79.5706L120.354 104.757L138.863 107.414L144.597 82.2284L126.088 79.5706Z" fill="#F7F7F7"/>
<path d="M142.636 84.0838L126.907 81.8252M142.107 86.4644L126.378 84.2058M135.558 88.4378L125.729 87.0263M134.86 90.484L125.031 89.0725M134.161 92.5303L124.332 91.1188M137.766 103.838L127.936 102.427" stroke="#D3D3D3" stroke-width="0.528" stroke-miterlimit="10" stroke-linecap="round" stroke-linejoin="round"/>
<path d="M117.584 99.5044C117.584 99.5044 126.104 120.092 129.8 120.092C132.488 120.092 139.081 101.087 139.081 101.087L134.916 99.1154L130.27 107.075L125.567 92.2295" fill="#FFE3CA"/>
<path d="M134.089 100.532C134.089 100.532 135.47 98.3573 135.369 96.8151C135.33 96.2268 134.981 93.428 135.273 92.8778C135.565 92.3275 136.265 90.5268 136.665 90.1765C137.065 89.8265 138.545 89.2634 138.907 89.5136C139.269 89.7637 139.78 88.9946 140.319 88.7132C143.813 86.8919 146.254 94.2975 142.564 97.2323C141.899 97.7618 141.338 98.9215 140.241 99.5851C139.699 99.9128 139.403 100.485 138.886 101.456" fill="#FFE3CA"/>
<path d="M121.873 119.052C121.476 118.466 120.56 117.764 120.232 117.119C119.444 115.57 118.755 109.048 119.026 107.381C119.317 105.595 120.897 104.635 121.61 100.659C122.529 95.5384 120.43 91.5586 119.256 89.8538C117.597 87.4431 118.58 87.4571 118.013 84.5038C117.91 83.9718 117.79 83.404 117.427 83.0332C117.068 82.6674 114.595 81.537 114.109 81.4621C109.497 80.7476 106.787 81.3053 102.124 81.5095C99.8178 81.6103 97.5149 81.8796 95.2503 82.3792C92.7441 82.932 90.5609 83.5966 90.0454 86.9976C89.2483 92.2577 89.9185 97.5755 91.5176 102.564C92.5778 105.871 98.9062 117.311 97.3381 119.525C96.9796 120.031 96.0826 120.992 95.9741 121.623C95.5772 123.936 100.801 124.749 103.037 124.932C106.444 125.212 110.352 125.024 113.767 124.865C116.354 124.744 122.012 123.841 122.414 120.644C122.493 120.017 122.183 119.511 121.873 119.052Z" fill="#FFBE55"/>
<path d="M109.75 81.1446C111.968 81.2598 118.427 80.1267 122.016 83.8808C125.023 87.0261 126.746 95.2715 127.956 98.6156C124.944 101.686 122.042 104.162 117.478 103.166C117.306 103.038 115.041 95.9106 113.393 95.2766" fill="#FFBE55"/>
<path d="M112.928 71.6906C112.928 71.6906 120.578 81.4072 116.271 92.2294C111.002 105.468 110.533 106.17 116.271 113.974C122.009 121.778 116.918 131.359 108.683 133.842C100.448 136.326 79.3014 135.128 80.5799 116.588C81.1029 109.007 86.2006 107.83 84.1091 100.249C82.0176 92.6679 81.5658 87.9622 85.4518 79.858C89.3377 71.7538 85.2835 49.4086 106.068 50.1896C106.068 50.1896 102.271 74.1109 112.928 71.6906Z" fill="#0B4870"/>
</g>
<defs>
<clipPath id="clip0_5_2792">
<rect width="225.806" height="250" fill="white"/>
</clipPath>
</defs>
</svg>
