<svg width="250" height="201" viewBox="0 0 250 201" fill="none" xmlns="http://www.w3.org/2000/svg">
<g clip-path="url(#clip0_226_671)">
<path d="M158.849 81.4176L204.351 105.724V176.603L158.849 152.296V81.4176Z" fill="#185CB8"/>
<path d="M158.849 81.4176L52.5806 105.724V176.603L158.849 152.296V81.4176Z" fill="#0076EB"/>
<path d="M140.619 58.9827L34.3506 83.2895L52.5804 105.554L158.849 81.2476L140.619 58.9827Z" fill="#0076EB"/>
<path d="M98.0825 200.739L52.5806 176.433V105.554L98.0825 129.861V200.739Z" fill="#0076EB"/>
<path d="M79.8525 146.049L34.3506 121.742L52.5804 105.554L98.0823 129.861L79.8525 146.049Z" fill="#0076EB"/>
<path d="M204.351 105.554L158.849 81.2475L177.079 65.0592L222.581 89.366L204.351 105.554Z" fill="#0076EB"/>
<path d="M98.0825 200.739L204.351 176.433V105.554L98.0825 129.861V200.739Z" fill="#0076EB"/>
<path d="M98.0825 130.201L204.351 105.895L222.582 125.559L116.313 149.865L98.0825 130.201Z" fill="#0076EB"/>
<path d="M26.6685 21.5481C29.0719 21.1999 31.5132 21.2038 33.9155 21.5595C36.3405 21.8854 38.7105 22.5369 40.9615 23.4961C43.2237 24.4588 45.3133 25.7849 47.1476 27.422C48.9708 29.0442 50.4687 30.9985 51.5614 33.1807C50.0985 31.3056 48.412 29.6161 46.5396 28.1498C44.676 26.7212 42.6404 25.5324 40.4804 24.6115C39.4052 24.1364 38.3016 23.7282 37.176 23.3892C36.0544 23.0284 34.9069 22.7499 33.7522 22.49C31.4192 21.9915 29.0507 21.6765 26.6685 21.5481Z" fill="#0076EB"/>
<path d="M175.062 32.4787C175.326 30.0647 175.941 27.702 176.887 25.4653C177.81 23.1991 179.034 21.0676 180.526 19.1286C182.025 17.1795 183.832 15.4884 185.876 14.1224C187.903 12.7636 190.17 11.8027 192.556 11.291C190.375 12.238 188.317 13.4477 186.428 14.8933C184.578 16.3397 182.918 18.0129 181.486 19.8736C180.756 20.7956 180.085 21.7618 179.475 22.7667C178.845 23.7622 178.288 24.8035 177.747 25.8564C176.68 27.9903 175.782 30.2045 175.062 32.4787Z" fill="#F9A21B"/>
<path d="M116.42 26.165C115.827 23.8098 115.582 21.3809 115.69 18.9548C115.766 16.5092 116.172 14.085 116.896 11.7478C117.622 9.39901 118.728 7.18476 120.169 5.19271C121.596 3.21317 123.387 1.52327 125.446 0.213135C123.73 1.86014 122.222 3.71047 120.955 5.72305C119.724 7.72284 118.75 9.86937 118.055 12.1122C117.692 13.2304 117.399 14.3699 117.177 15.5244C116.932 16.6769 116.773 17.8469 116.632 19.0221C116.375 21.3939 116.304 23.7822 116.42 26.165Z" fill="#D62828"/>
<path d="M208.408 54.9028C208.657 52.4871 209.257 50.1206 210.188 47.8778C211.097 45.6058 212.307 43.4666 213.787 41.5181C215.273 39.5594 217.069 37.8569 219.104 36.4779C221.123 35.106 223.384 34.1307 225.767 33.6038C223.591 34.5646 221.541 35.7875 219.662 37.2452C217.821 38.7034 216.171 40.3872 214.751 42.2569C214.028 43.1836 213.362 44.1541 212.759 45.1629C212.135 46.1624 211.585 47.2071 211.051 48.2636C209.998 50.4042 209.114 52.6241 208.408 54.9028Z" fill="#0076EB"/>
<path d="M70.062 65.7782C70.327 65.8886 70.5449 66.0885 70.6775 66.3431C70.8017 66.6026 70.8832 66.8805 70.9186 67.1661C71.002 67.7273 70.9903 68.2845 71.0392 68.8116C71.0176 69.2663 71.1658 69.7128 71.4551 70.0642C71.6084 70.1669 71.7914 70.2161 71.9756 70.2039C72.1597 70.1918 72.3347 70.1191 72.4732 69.9971C72.8977 69.6999 73.3039 69.3775 73.6897 69.0315C74.1584 68.5831 74.7359 68.2646 75.3653 68.1075C75.7832 68.0404 76.2106 68.1416 76.5541 68.3888C76.7279 68.5092 76.8778 68.6607 76.9963 68.8358C77.0952 68.999 77.1733 69.1739 77.2287 69.3564C77.3695 69.9514 77.4187 70.5645 77.3746 71.1744C77.3306 71.6533 77.3538 72.136 77.4436 72.6085C77.4684 72.751 77.5478 72.8782 77.6649 72.9631C77.7671 73.0408 77.896 73.0749 78.0232 73.0579C78.4574 72.9453 78.8589 72.7319 79.1951 72.4349C79.6404 72.0707 80.1185 71.7485 80.6232 71.4724C80.9307 71.3063 81.2754 71.2214 81.6249 71.2258C82.0088 71.2374 82.3731 71.3985 82.64 71.6746C82.8692 71.9378 83.0172 72.2618 83.0661 72.6073C83.1074 72.9006 83.1182 73.1973 83.0981 73.4927C83.0593 74.0577 82.978 74.5925 82.96 75.1224C82.9178 75.3825 82.9438 75.6491 83.0355 75.8961C83.1272 76.1431 83.2815 76.3621 83.4832 76.5316C83.218 76.4215 82.9998 76.2219 82.8666 75.9676C82.7418 75.7082 82.6598 75.4303 82.6239 75.1447C82.54 74.5834 82.5508 74.026 82.5014 73.4991C82.5231 73.0445 82.3749 72.5981 82.0857 72.2467C81.9334 72.1431 81.751 72.093 81.5672 72.1043C81.3834 72.1155 81.2085 72.1875 81.07 72.309C80.6454 72.6053 80.2391 72.9268 79.8533 73.272C79.385 73.72 78.8086 74.0389 78.1803 74.1979C77.7632 74.267 77.3356 74.1683 76.9909 73.9234C76.8158 73.8046 76.6648 73.6538 76.5459 73.4789C76.4447 73.3164 76.365 73.1415 76.3088 72.9585C76.1657 72.3631 76.1157 71.749 76.1606 71.1383C76.2055 70.6586 76.183 70.175 76.0938 69.7015C76.072 69.6223 76.0418 69.5456 76.0038 69.4727C75.9544 69.434 75.936 69.3649 75.8738 69.3434C75.7722 69.2654 75.6443 69.2301 75.5171 69.245C75.0833 69.3567 74.6822 69.5695 74.3465 69.8662C73.9013 70.2299 73.424 70.5523 72.9204 70.8294C72.6139 70.9958 72.2703 71.082 71.9215 71.0799C71.5376 71.07 71.1727 70.9103 70.9049 70.6349C70.6752 70.3722 70.5268 70.0484 70.4778 69.703C70.436 69.4098 70.4252 69.1131 70.4458 68.8177C70.4846 68.2529 70.5658 67.718 70.5844 67.1879C70.6269 66.9278 70.6011 66.6611 70.5095 66.414C70.4179 66.1669 70.2637 65.9478 70.062 65.7782Z" fill="#F9A21B"/>
<path d="M128.366 38.9718C128.45 39.2536 128.436 39.5553 128.328 39.8287C128.212 40.1007 128.049 40.3506 127.848 40.5674C127.462 41.0049 127.013 41.3615 126.631 41.7472C126.257 42.0343 126.006 42.4517 125.927 42.9161C125.942 43.1116 126.018 43.2974 126.144 43.4472C126.27 43.597 126.441 43.7031 126.631 43.7504C127.136 43.9157 127.651 44.048 128.173 44.1465C128.832 44.2508 129.45 44.5296 129.964 44.954C130.262 45.2498 130.442 45.6447 130.469 46.064C130.487 46.2733 130.468 46.4843 130.412 46.6868C130.353 46.8724 130.272 47.0498 130.168 47.2146C129.798 47.7243 129.349 48.1714 128.837 48.5388C128.431 48.8186 128.069 49.1565 127.761 49.5417C127.666 49.6662 127.619 49.8214 127.63 49.978C127.636 50.1234 127.694 50.2617 127.792 50.3688C128.15 50.6594 128.574 50.8579 129.026 50.947C129.602 51.0823 130.164 51.2733 130.703 51.5172C130.854 51.5948 130.998 51.6836 131.136 51.7829C131.281 51.8992 131.409 52.0362 131.515 52.1896C131.734 52.5037 131.833 52.8857 131.795 53.2665C131.741 53.6172 131.589 53.9455 131.357 54.2135C131.157 54.4439 130.932 54.6511 130.686 54.8311C130.216 55.1757 129.741 55.4635 129.315 55.8019C129.085 55.9454 128.895 56.145 128.764 56.3821C128.632 56.6191 128.564 56.8857 128.564 57.1567C128.48 56.8749 128.493 56.5731 128.601 56.2995C128.717 56.0272 128.879 55.777 129.08 55.5598C129.466 55.122 129.915 54.7647 130.297 54.3787C130.67 54.0919 130.921 53.6746 131 53.2104C130.986 53.0153 130.911 52.8294 130.786 52.6795C130.66 52.5296 130.49 52.4233 130.3 52.3758C129.796 52.2098 129.281 52.0769 128.759 51.9779C128.101 51.8736 127.483 51.5956 126.969 51.1726C126.749 50.9484 126.592 50.671 126.512 50.3676C126.432 50.0642 126.433 49.7453 126.514 49.4422C126.571 49.2556 126.652 49.0772 126.755 48.9115C127.124 48.4001 127.573 47.952 128.086 47.5848C128.493 47.3053 128.856 46.9673 129.165 46.5819C129.262 46.4576 129.31 46.3021 129.299 46.1448C129.293 45.9997 129.237 45.8611 129.14 45.7529C128.783 45.4623 128.36 45.2638 127.908 45.1749C127.332 45.0393 126.771 44.8489 126.231 44.6064C126.08 44.5296 125.936 44.4412 125.799 44.342C125.653 44.2266 125.524 44.0904 125.418 43.9376C125.199 43.6242 125.099 43.2425 125.136 42.8617C125.189 42.5111 125.341 42.1828 125.573 41.9149C125.772 41.6841 125.997 41.4769 126.244 41.2973C126.714 40.9528 127.189 40.6647 127.615 40.3266C127.845 40.1832 128.035 39.9836 128.166 39.7465C128.298 39.5095 128.366 39.2428 128.366 38.9718Z" fill="#0076EB"/>
<path d="M156.772 61.8822C156.884 61.5746 157.073 61.3013 157.322 61.0889C157.583 60.8802 157.88 60.7223 158.199 60.6235C158.827 60.4195 159.473 60.3502 160.065 60.2019C160.609 60.125 161.102 59.842 161.443 59.4114C161.574 59.2025 161.651 58.9643 161.667 58.7183C161.683 58.4723 161.638 58.2262 161.535 58.0021C161.258 57.4724 160.937 56.9669 160.575 56.491C160.115 55.9026 159.835 55.1942 159.768 54.4505C159.775 54.0301 159.89 53.6185 160.103 53.2555C160.315 52.8925 160.617 52.5902 160.98 52.3777C161.624 52.0719 162.319 51.8885 163.03 51.8369C163.585 51.8076 164.131 51.6824 164.643 51.4666C164.827 51.356 164.981 51.2025 165.093 51.0192C165.205 50.836 165.271 50.6284 165.285 50.4142C165.235 49.8886 165.044 49.3863 164.732 48.9607C164.347 48.4107 164.027 47.8187 163.777 47.1962C163.649 46.8281 163.611 46.4348 163.666 46.049C163.725 45.6631 163.882 45.2986 164.121 44.9898C164.617 44.4495 165.305 44.1245 166.037 44.0842C166.693 44.015 167.32 44.0183 167.925 43.922C168.23 43.8898 168.525 43.7891 168.786 43.6273C169.047 43.4656 169.268 43.247 169.433 42.9878C169.322 43.2955 169.133 43.569 168.884 43.7818C168.623 43.9908 168.326 44.1491 168.008 44.2486C167.38 44.453 166.733 44.5232 166.142 44.6717C165.598 44.7488 165.105 45.0313 164.763 45.4612C164.632 45.6698 164.555 45.9075 164.538 46.1533C164.522 46.399 164.566 46.645 164.668 46.8694C164.944 47.3991 165.264 47.9047 165.625 48.3807C166.083 48.9689 166.365 49.676 166.436 50.4187C166.429 50.8394 166.315 51.2513 166.104 51.6154C165.893 51.9794 165.593 52.2834 165.231 52.4983C164.587 52.8069 163.891 52.9915 163.179 53.0424C162.623 53.0709 162.077 53.1954 161.564 53.4106C161.379 53.52 161.223 53.6726 161.11 53.8553C160.997 54.038 160.931 54.2454 160.915 54.4597C160.963 54.985 161.153 55.4873 161.466 55.9121C161.849 56.4617 162.17 57.0528 162.421 57.6743C162.55 58.0416 162.59 58.4344 162.536 58.82C162.478 59.2061 162.322 59.5709 162.083 59.8795C161.589 60.421 160.901 60.7466 160.169 60.7862C159.513 60.8556 158.886 60.8524 158.281 60.9481C157.975 60.9801 157.681 61.0807 157.42 61.2425C157.158 61.4042 156.937 61.6229 156.772 61.8822Z" fill="#F9A21B"/>
<path d="M166.883 87.257C166.915 86.9313 167.031 86.6194 167.219 86.3517C167.419 86.0848 167.668 85.8579 167.952 85.6828C168.51 85.3289 169.119 85.1009 169.655 84.8101C170.162 84.6003 170.57 84.2034 170.793 83.7015C170.868 83.4666 170.883 83.2168 170.837 82.9746C170.791 82.7323 170.686 82.5053 170.531 82.3137C170.131 81.8696 169.694 81.4599 169.225 81.0891C168.634 80.6336 168.186 80.0172 167.936 79.3137C167.838 78.9047 167.847 78.4774 167.962 78.073C168.078 77.6685 168.295 77.3006 168.594 77.0045C169.141 76.5479 169.769 76.1972 170.445 75.9703C170.975 75.8039 171.472 75.5468 171.915 75.2104C172.065 75.0575 172.177 74.8704 172.239 74.665C172.302 74.4597 172.314 74.2423 172.275 74.0313C172.096 73.5347 171.785 73.0958 171.377 72.7612C170.868 72.3242 170.411 71.8305 170.014 71.2897C169.798 70.965 169.663 70.5936 169.62 70.2062C169.582 69.8177 169.643 69.4258 169.797 69.0673C170.143 68.4205 170.728 67.9346 171.428 67.7134C172.046 67.4829 172.654 67.3302 173.216 67.0865C173.504 66.9792 173.764 66.8084 173.977 66.5867C174.189 66.3651 174.349 66.0982 174.445 65.8062C174.413 66.1319 174.298 66.444 174.11 66.712C173.91 66.9792 173.661 67.2065 173.377 67.3821C172.82 67.7364 172.211 67.9652 171.675 68.2564C171.168 68.4662 170.76 68.8627 170.537 69.364C170.462 69.5986 170.446 69.8481 170.491 70.0903C170.536 70.3324 170.64 70.5596 170.795 70.7516C171.194 71.1961 171.63 71.6061 172.098 71.9773C172.688 72.4329 173.137 73.0477 173.39 73.7494C173.489 74.1585 173.481 74.5858 173.367 74.9909C173.253 75.3959 173.038 75.7651 172.741 76.0632C172.194 76.5224 171.566 76.8744 170.889 77.101C170.358 77.2668 169.859 77.5234 169.416 77.8595C169.264 78.0114 169.151 78.198 169.088 78.403C169.024 78.6081 169.011 78.8256 169.049 79.0369C169.226 79.5339 169.535 79.9731 169.944 80.3068C170.452 80.7435 170.91 81.2363 171.308 81.7758C171.524 82.0993 171.66 82.4699 171.704 82.8567C171.744 83.2451 171.684 83.6372 171.529 83.9957C171.185 84.6432 170.6 85.1297 169.901 85.3503C169.282 85.5807 168.675 85.7335 168.112 85.9769C167.824 86.0839 167.564 86.2546 167.351 86.4763C167.139 86.6979 166.979 86.9648 166.883 87.257Z" fill="#0076EB"/>
<path d="M102.477 87.5604C102.702 87.7221 102.857 87.9626 102.912 88.234C102.955 88.5057 102.96 88.7823 102.925 89.0554C102.868 89.5953 102.73 90.1105 102.651 90.613C102.522 91.0255 102.545 91.4706 102.716 91.8675C102.908 92.0957 103.188 92.1204 103.624 91.9335C104.073 91.7175 104.51 91.4784 104.934 91.2169C105.45 90.8727 106.043 90.6605 106.66 90.5989C106.873 90.5931 107.084 90.6348 107.279 90.721C107.474 90.8072 107.647 90.9356 107.786 91.0971C107.928 91.2566 108.035 91.4447 108.099 91.6486C108.148 91.8268 108.175 92.0104 108.177 92.1952C108.154 92.7779 108.05 93.3546 107.868 93.9087C107.715 94.3463 107.618 94.8017 107.581 95.2638C107.58 95.3403 107.587 95.4167 107.602 95.4918C107.635 95.531 107.63 95.5917 107.673 95.6124C107.726 95.6906 107.801 95.7155 107.932 95.7283C108.36 95.6826 108.774 95.5431 109.143 95.3197C109.624 95.0537 110.127 94.8291 110.646 94.6484C110.964 94.5379 111.304 94.5068 111.637 94.5576C111.826 94.5914 112.006 94.667 112.162 94.7789C112.319 94.8908 112.448 95.0362 112.541 95.2044C112.69 95.51 112.744 95.853 112.696 96.1895C112.657 96.4691 112.592 96.7446 112.504 97.0127C112.331 97.5263 112.131 98.0049 111.982 98.4923C111.874 98.7201 111.828 98.9725 111.849 99.2239C111.87 99.4753 111.958 99.7165 112.103 99.9229C111.878 99.7615 111.722 99.5212 111.667 99.25C111.623 98.9781 111.617 98.7013 111.652 98.4281C111.708 97.888 111.845 97.3724 111.924 96.8699C112.053 96.4573 112.03 96.0122 111.859 95.6154C111.668 95.3859 111.39 95.3596 110.955 95.545C110.506 95.76 110.069 95.9983 109.644 96.2589C109.129 96.6026 108.538 96.8155 107.922 96.879C107.709 96.8859 107.498 96.8456 107.303 96.7608C107.108 96.6761 106.934 96.5491 106.794 96.389C106.65 96.23 106.541 96.0425 106.474 95.8388C106.424 95.6603 106.397 95.4763 106.393 95.291C106.414 94.7073 106.517 94.1294 106.7 93.5747C106.855 93.1366 106.952 92.6805 106.991 92.2176C106.992 92.1406 106.985 92.0637 106.97 91.9882C106.938 91.9465 106.944 91.8858 106.9 91.8649C106.848 91.7858 106.773 91.7618 106.645 91.7462C106.216 91.7912 105.804 91.9302 105.435 92.1533C104.954 92.419 104.452 92.6439 103.934 92.8258C103.617 92.9367 103.278 92.9694 102.945 92.9212C102.756 92.8881 102.576 92.8133 102.419 92.7022C102.263 92.591 102.132 92.4464 102.038 92.2787C101.889 91.9734 101.834 91.6303 101.882 91.2937C101.921 91.0141 101.986 90.7386 102.075 90.4706C102.247 89.9572 102.448 89.4783 102.597 88.9911C102.705 88.7634 102.751 88.511 102.73 88.2596C102.709 88.0082 102.622 87.7669 102.477 87.5604Z" fill="#F9A21B"/>
<path d="M82.2284 4.9165C82.3452 5.21119 82.3772 5.5327 82.3206 5.84462C82.2541 6.16008 82.1291 6.46032 81.9522 6.72986C81.6126 7.26883 81.1803 7.72266 80.8341 8.19962C80.4795 8.58691 80.2871 9.09566 80.2969 9.62072C80.3344 9.84935 80.4319 10.0639 80.5795 10.2425C80.727 10.4211 80.9194 10.5573 81.1369 10.6371C81.6836 10.8225 82.244 10.9644 82.813 11.0615C83.5279 11.1708 84.1972 11.4802 84.7435 11.9541C85.0257 12.261 85.2168 12.6406 85.2952 13.0501C85.3736 13.4596 85.3363 13.8829 85.1874 14.2724C84.8936 14.8949 84.4902 15.4595 83.9965 15.9392C83.605 16.3049 83.2772 16.7334 83.0267 17.207C82.9563 17.3904 82.9362 17.5893 82.9685 17.7831C83.0008 17.9768 83.0843 18.1584 83.2104 18.309C83.5948 18.639 84.0596 18.8615 84.5578 18.9538C85.1906 19.0889 85.8066 19.293 86.3949 19.5625C86.7345 19.7335 87.0268 19.9856 87.2456 20.2966C87.4637 20.6153 87.5894 20.9881 87.6086 21.3738C87.5736 22.086 87.2589 22.7556 86.7327 23.237C86.2884 23.6926 85.8233 24.0792 85.4313 24.5223C85.2202 24.73 85.0608 24.9844 84.966 25.265C84.8711 25.5455 84.8435 25.8444 84.8852 26.1376C84.7682 25.843 84.7359 25.5214 84.792 25.2094C84.8582 24.8938 84.9828 24.5933 85.1593 24.3234C85.4987 23.7841 85.9304 23.3297 86.2763 22.8524C86.6307 22.4652 86.8232 21.9569 86.8142 21.4321C86.7772 21.2036 86.6802 20.9891 86.5333 20.8103C86.3864 20.6315 86.1947 20.4948 85.9778 20.4142C85.4318 20.2281 84.872 20.0855 84.3035 19.9878C83.5891 19.8787 82.92 19.5703 82.3729 19.0981C82.0895 18.7921 81.8969 18.4132 81.8166 18.0039C81.7364 17.5946 81.7715 17.1711 81.9183 16.7807C82.2102 16.1563 82.6135 15.5904 83.1084 15.1106C83.501 14.7449 83.83 14.3163 84.0818 13.8425C84.1532 13.6593 84.1746 13.4605 84.1436 13.2663C84.1127 13.0722 84.0305 12.8898 83.9056 12.738C83.522 12.4077 83.0577 12.1851 82.5599 12.0929C81.9276 11.9578 81.3118 11.7544 80.7233 11.4864C80.3835 11.3169 80.0907 11.066 79.871 10.7562C79.6518 10.4383 79.5255 10.0656 79.5063 9.6799C79.5396 8.96778 79.8539 8.29791 80.3803 7.81713C80.8245 7.36153 81.2896 6.97477 81.682 6.53193C81.8933 6.32432 82.0528 6.06995 82.1477 5.78935C82.2427 5.50874 82.2703 5.20975 82.2284 4.9165Z" fill="#F9A21B"/>
<path d="M77.8063 40.02C78.3936 39.8931 78.9302 39.5949 79.3481 39.1631C79.766 38.7313 80.0465 38.1853 80.154 37.594C80.2616 37.0028 80.1915 36.393 79.9524 35.8416C79.7134 35.2903 79.3163 34.8222 78.8112 34.4966C78.3062 34.171 77.7159 34.0024 77.115 34.0122C76.5142 34.0221 75.9298 34.2099 75.4357 34.5519C74.9415 34.8939 74.5599 35.3747 74.3391 35.9336C74.1182 36.4924 74.0681 37.1042 74.195 37.6916C74.3732 38.4747 74.8509 39.1569 75.5259 39.5921C76.2009 40.0273 77.0194 40.1809 77.8063 40.02Z" fill="#0076EB"/>
<path d="M135.158 11.9662C135.746 11.8393 136.282 11.5411 136.7 11.1093C137.118 10.6775 137.399 10.1314 137.506 9.54021C137.614 8.949 137.544 8.33916 137.304 7.78782C137.065 7.23647 136.668 6.76839 136.163 6.44276C135.658 6.11713 135.068 5.94858 134.467 5.95842C133.866 5.96825 133.282 6.15604 132.788 6.49804C132.294 6.84003 131.912 7.32086 131.691 7.87973C131.47 8.43861 131.42 9.05041 131.547 9.63779C131.725 10.4209 132.203 11.103 132.878 11.5382C133.553 11.9734 134.371 12.127 135.158 11.9662Z" fill="#F9A21B"/>
<path d="M141.954 38.2501C142.542 38.1232 143.078 37.825 143.496 37.3932C143.914 36.9614 144.194 36.4154 144.302 35.8241C144.41 35.2329 144.339 34.6231 144.1 34.0718C143.861 33.5204 143.464 33.0523 142.959 32.7267C142.454 32.4011 141.864 32.2325 141.263 32.2424C140.662 32.2522 140.078 32.44 139.584 32.782C139.089 33.124 138.708 33.6048 138.487 34.1637C138.266 34.7225 138.216 35.3343 138.343 35.9217C138.521 36.7048 138.999 37.387 139.674 37.8222C140.349 38.2574 141.167 38.411 141.954 38.2501Z" fill="#DBE8EC"/>
<path d="M125.718 79.1323C126.306 79.0055 126.842 78.7072 127.26 78.2754C127.678 77.8436 127.959 77.2976 128.066 76.7064C128.174 76.1151 128.104 75.5053 127.865 74.954C127.626 74.4026 127.228 73.9345 126.723 73.6089C126.218 73.2833 125.628 73.1147 125.027 73.1246C124.426 73.1344 123.842 73.3222 123.348 73.6642C122.854 74.0062 122.472 74.487 122.251 75.0459C122.03 75.6047 121.98 76.2166 122.107 76.8039C122.285 77.587 122.763 78.2692 123.438 78.7044C124.113 79.1396 124.932 79.2932 125.718 79.1323Z" fill="#DBE8EC"/>
<path d="M147.647 98.0815C148.234 97.9547 148.771 97.6565 149.189 97.2246C149.607 96.7928 149.887 96.2468 149.995 95.6556C150.102 95.0643 150.032 94.4545 149.793 93.9032C149.554 93.3518 149.157 92.8837 148.652 92.5581C148.147 92.2325 147.557 92.0639 146.956 92.0738C146.355 92.0836 145.771 92.2714 145.276 92.6134C144.782 92.9554 144.401 93.4362 144.18 93.9951C143.959 94.554 143.909 95.1658 144.036 95.7531C144.214 96.5362 144.692 97.2184 145.367 97.6536C146.042 98.0888 146.86 98.2424 147.647 98.0815Z" fill="#DBE8EC"/>
<path d="M128.773 112.424C129.36 112.297 129.897 111.999 130.314 111.567C130.732 111.135 131.013 110.589 131.12 109.998C131.228 109.407 131.158 108.797 130.919 108.246C130.68 107.694 130.283 107.226 129.778 106.901C129.272 106.575 128.682 106.407 128.081 106.416C127.481 106.426 126.896 106.614 126.402 106.956C125.908 107.298 125.526 107.779 125.305 108.338C125.085 108.897 125.034 109.508 125.161 110.096C125.339 110.879 125.817 111.561 126.492 111.996C127.167 112.431 127.986 112.585 128.773 112.424Z" fill="#0076EB"/>
<path d="M201.466 85.8231C202.054 85.6963 202.59 85.3981 203.008 84.9662C203.426 84.5344 203.707 83.9884 203.814 83.3972C203.922 82.8059 203.852 82.1961 203.613 81.6447C203.374 81.0934 202.976 80.6253 202.471 80.2997C201.966 79.9741 201.376 79.8055 200.775 79.8153C200.174 79.8252 199.59 80.013 199.096 80.355C198.602 80.697 198.22 81.1778 197.999 81.7367C197.778 82.2955 197.728 82.9074 197.855 83.4947C198.033 84.2778 198.511 84.96 199.186 85.3952C199.861 85.8304 200.68 85.984 201.466 85.8231Z" fill="#F9A21B"/>
<path d="M208.954 39.6688C209.542 39.5419 210.078 39.2438 210.496 38.8119C210.914 38.3801 211.194 37.8341 211.302 37.2429C211.41 36.6516 211.339 36.0418 211.1 35.4905C210.861 34.9391 210.464 34.471 209.959 34.1454C209.454 33.8198 208.864 33.6512 208.263 33.6611C207.662 33.6709 207.078 33.8587 206.584 34.2007C206.089 34.5427 205.708 35.0235 205.487 35.5824C205.266 36.1412 205.216 36.7531 205.343 37.3404C205.521 38.1235 205.999 38.8057 206.674 39.2409C207.349 39.6761 208.167 39.8297 208.954 39.6688Z" fill="#D62828"/>
<path d="M56.276 84.3877C56.8634 84.2608 57.3999 83.9626 57.8178 83.5308C58.2357 83.099 58.5162 82.5529 58.6238 81.9617C58.7313 81.3705 58.6612 80.7607 58.4222 80.2093C58.1831 79.658 57.786 79.1899 57.2809 78.8643C56.7759 78.5386 56.1856 78.3701 55.5848 78.3799C54.9839 78.3898 54.3995 78.5775 53.9054 78.9195C53.4113 79.2615 53.0297 79.7424 52.8088 80.3012C52.588 80.8601 52.5378 81.4719 52.6647 82.0593C52.8429 82.8424 53.3207 83.5245 53.9956 83.9597C54.6706 84.3949 55.4891 84.5485 56.276 84.3877Z" fill="#D62828"/>
<path d="M65.4025 104.171C65.9898 104.044 66.5264 103.746 66.9443 103.314C67.3622 102.882 67.6427 102.336 67.7503 101.745C67.8578 101.154 67.7877 100.544 67.5486 99.9924C67.3096 99.4411 66.9125 98.973 66.4074 98.6473C65.9024 98.3217 65.3121 98.1532 64.7112 98.163C64.1104 98.1728 63.526 98.3606 63.0318 98.7026C62.5377 99.0446 62.1561 99.5255 61.9353 100.084C61.7144 100.643 61.6643 101.255 61.7911 101.842C61.9694 102.625 62.4471 103.308 63.1221 103.743C63.7971 104.178 64.6156 104.332 65.4025 104.171Z" fill="#F9A21B"/>
<path d="M109.119 30.3178C107.422 32.6896 106.44 35.4983 106.29 38.4111C103.918 36.7136 101.11 35.7317 98.1968 35.582C99.8943 33.2103 100.876 30.4015 101.026 27.4888C103.398 29.1863 106.206 30.1681 109.119 30.3178Z" fill="#F9A21B"/>
<path d="M56.7104 52.9963C55.0129 55.368 54.031 58.1768 53.8813 61.0895C51.5096 59.392 48.7008 58.4102 45.7881 58.2605C47.4856 55.8887 48.4674 53.08 48.6172 50.1672C50.9889 51.8648 53.7976 52.8466 56.7104 52.9963Z" fill="#F9A21B"/>
<path d="M101.051 64.4585C99.3532 66.8302 98.3714 69.6389 98.2216 72.5517C95.8499 70.8542 93.0412 69.8724 90.1284 69.7226C91.8259 67.3509 92.8078 64.5422 92.9575 61.6294C95.3292 63.3269 98.138 64.3087 101.051 64.4585Z" fill="#0076EB"/>
<path d="M163.102 18.658C161.405 21.0297 160.423 23.8384 160.273 26.7512C157.902 25.0536 155.093 24.0718 152.18 23.9221C153.878 21.5504 154.86 18.7416 155.009 15.8289C157.381 17.5264 160.19 18.5082 163.102 18.658Z" fill="#0076EB"/>
<path d="M152.467 68.5228C150.769 70.8945 149.787 73.7033 149.638 76.616C147.266 74.9185 144.457 73.9367 141.544 73.787C143.242 71.4152 144.224 68.6065 144.373 65.6937C146.745 67.3912 149.554 68.3731 152.467 68.5228Z" fill="#F9A21B"/>
<path d="M200.01 55.2641C198.312 57.6358 197.33 60.4446 197.181 63.3574C194.809 61.6598 192 60.678 189.087 60.5283C190.785 58.1566 191.767 55.3478 191.916 52.4351C194.288 54.1326 197.097 55.1144 200.01 55.2641Z" fill="#D62828"/>
<path d="M230.797 56.8951C229.1 59.2668 228.118 62.0756 227.968 64.9883C225.597 63.2908 222.788 62.309 219.875 62.1593C221.573 59.7876 222.554 56.9788 222.704 54.066C225.076 55.7636 227.885 56.7454 230.797 56.8951Z" fill="#F9A21B"/>
<path d="M180.523 99.3104C178.825 101.682 177.844 104.491 177.694 107.404C175.322 105.706 172.513 104.724 169.601 104.575C171.298 102.203 172.28 99.3941 172.43 96.4813C174.801 98.1788 177.61 99.1607 180.523 99.3104Z" fill="#0076EB"/>
<path d="M93.9057 101.361C92.2082 103.733 91.2264 106.542 91.0766 109.454C88.7049 107.757 85.8962 106.775 82.9834 106.625C84.6809 104.254 85.6627 101.445 85.8125 98.5321C88.1842 100.23 90.9929 101.211 93.9057 101.361Z" fill="#DBE8EC"/>
</g>
<defs>
<clipPath id="clip0_226_671">
<rect width="250" height="200.867" fill="white"/>
</clipPath>
</defs>
</svg>
