<svg width="230" height="201" viewBox="0 0 230 201" fill="none" xmlns="http://www.w3.org/2000/svg">
<path d="M140.371 199.42H140.478C141.736 199.423 142.974 199.098 144.069 198.479C145.165 197.859 146.08 196.965 146.726 195.885C148.409 193.06 150.774 189.097 152.564 186.102C154.247 183.29 155.454 180.218 156.134 177.011L157.027 172.727C157.607 169.973 157.781 167.149 157.544 164.345L157.098 159.601C156.754 155.6 155.948 151.653 154.697 147.837L153.836 140.299C153.836 140.245 153.537 138 153.278 135.894C153.047 133.944 152.607 132.024 151.966 130.168C151.627 128.949 151.221 127.75 150.752 126.575L150.694 126.437C150.621 126.392 150.561 126.329 150.52 126.254C148.875 123.102 146.435 120.436 143.441 118.519C142.114 117.848 140.624 117.566 139.143 117.707C137.447 117.859 135.149 117.85 133.895 116.926L131.663 115.288C130.541 114.464 129.26 113.88 127.902 113.572C126.544 113.265 125.136 113.242 123.768 113.503C123.665 113.524 123.558 113.509 123.465 113.458L116.141 109.343C116.12 109.333 116.097 109.324 116.074 109.317L114.133 108.611C112.889 108.164 111.577 107.934 110.254 107.933C109.29 107.935 108.338 107.713 107.474 107.286C105.696 106.377 103.75 105.844 101.757 105.719C100.303 105.603 98.8393 105.692 97.4098 105.983C97.324 106.009 97.2323 106.009 97.1465 105.983L96.4324 105.742C96.314 105.722 96.2083 105.656 96.1384 105.559C96.0685 105.461 96.0402 105.34 96.0597 105.222C96.0793 105.103 96.145 104.998 96.2425 104.928C96.34 104.858 96.4613 104.83 96.5797 104.849H97.209C97.2518 104.856 97.2955 104.856 97.3384 104.849L101.891 103.466H101.953C103.727 103.189 105.542 103.417 107.193 104.122L107.965 104.447C110.096 105.348 112.386 105.809 114.7 105.804H114.735L118.582 106.072C119.038 106.105 119.483 106.23 119.889 106.44C120.295 106.65 120.654 106.941 120.943 107.295L120.975 107.335C121.409 107.868 121.995 108.256 122.655 108.447C123.315 108.638 124.018 108.624 124.67 108.406C125.42 108.152 126.125 107.924 126.33 107.857C126.372 107.843 126.416 107.836 126.46 107.835L128.191 107.795C129.068 107.775 129.939 107.95 130.74 108.307C131.541 108.665 132.253 109.195 132.824 109.861C132.89 109.938 132.979 109.989 133.078 110.008L134.096 110.209C140.185 111.401 145.985 113.762 151.176 117.163L151.595 117.439C151.672 117.493 151.764 117.521 151.858 117.52C151.952 117.518 152.043 117.487 152.119 117.43C152.194 117.374 152.249 117.295 152.277 117.206C152.305 117.116 152.304 117.02 152.274 116.93L152.006 116.306C149.391 110.2 147.422 103.854 145.521 97.4897C145.238 96.6805 144.864 95.9064 144.405 95.1823C142.223 91.496 140.633 87.4901 139.692 83.3108C139.425 82.137 139.197 81.2087 139.085 80.932L136.22 73.7243C135.244 71.2629 134.049 68.894 132.65 66.646L131.525 64.8295C130.557 63.2673 129.113 62.0566 127.406 61.3752C127.373 61.3615 127.338 61.3525 127.303 61.3484L124.505 60.9467C124.409 60.932 124.32 60.8884 124.25 60.8218L122.84 59.407C122.75 59.3301 122.693 59.2203 122.684 59.1019C122.674 58.9834 122.712 58.866 122.789 58.7755C122.866 58.6849 122.975 58.6286 123.094 58.619C123.212 58.6094 123.33 58.6472 123.42 58.7242C123.473 58.7638 123.534 58.7912 123.599 58.8045L127.856 59.6346H127.928L131.097 60.8128C131.161 60.8372 131.23 60.8464 131.298 60.8397C131.366 60.8331 131.432 60.8107 131.491 60.7745C131.549 60.7382 131.598 60.6889 131.634 60.6306C131.67 60.5722 131.693 60.5063 131.699 60.4379C131.748 59.9487 131.688 59.4547 131.523 58.9917C131.358 58.5286 131.092 58.1079 130.744 57.7601L129.128 56.1445C129.088 56.1085 129.057 56.0644 129.035 56.0151L126.638 50.7979C126.616 50.7548 126.602 50.7078 126.598 50.6595L126.205 47.0624C126.188 46.9525 126.212 46.8403 126.274 46.7476C126.335 46.6548 126.429 46.5883 126.536 46.5609C126.644 46.5336 126.758 46.5474 126.856 46.5997C126.954 46.652 127.029 46.739 127.067 46.8437L127.959 49.0752C127.98 49.1238 128.009 49.169 128.044 49.2091L129.829 51.1549C129.897 51.2263 129.98 51.2832 130.07 51.322C130.161 51.3608 130.259 51.3809 130.358 51.3809C130.457 51.3809 130.555 51.3608 130.646 51.322C130.736 51.2832 130.819 51.2263 130.887 51.1549C130.949 51.093 130.991 51.0144 131.008 50.9287C131.026 50.843 131.018 50.754 130.985 50.6729L127.687 42.3718C127.471 41.8307 127.446 41.2324 127.616 40.6752C127.785 40.118 128.139 39.6351 128.62 39.3057L128.664 39.27L129.557 38.4577C130.816 37.3376 132.442 36.7183 134.127 36.7171C134.167 36.7215 134.207 36.7215 134.248 36.7171L138.532 35.5211C138.611 35.4987 138.683 35.4547 138.739 35.394C138.795 35.3334 138.833 35.2584 138.849 35.1774L139.331 32.8745L139.527 35.7264C139.533 35.8047 139.517 35.883 139.483 35.9536C139.449 36.0241 139.396 36.0843 139.331 36.128L135.814 38.5336C135.588 38.6944 135.354 38.8434 135.113 38.9799L133.181 40.051C132.159 40.6158 131.38 41.5352 130.99 42.6354C130.601 43.7357 130.627 44.9406 131.065 46.0225C131.078 46.0493 131.087 46.0779 131.092 46.1073C131.72 49.3169 133.111 52.3281 135.149 54.886L135.796 55.6982C136.366 56.414 136.86 57.1873 137.269 58.0056C137.579 58.6252 138.025 59.1666 138.575 59.5892C139.124 60.0118 139.761 60.3047 140.439 60.446C141.118 60.5872 141.819 60.5732 142.491 60.4048C143.164 60.2365 143.789 59.9182 144.321 59.4739L145.088 58.8313L145.137 58.7866L150.43 52.8285C151.45 51.6814 152.646 50.705 153.974 49.9365L159.856 46.5134C159.882 46.4996 159.906 46.4832 159.928 46.4643L162.525 44.1837C162.573 44.144 162.612 44.0935 162.637 44.0364L164.386 40.3054C164.428 40.1941 164.512 40.1039 164.62 40.0545C164.728 40.0051 164.851 40.0006 164.962 40.0421C165.073 40.0835 165.163 40.1674 165.213 40.2754C165.262 40.3834 165.267 40.5065 165.225 40.6178L164.333 43.8802C164.326 43.9 164.319 43.9194 164.31 43.9383L163.083 46.8035C163.054 46.8718 163.008 46.9316 162.949 46.9776L157.634 51.2531C157.596 51.2828 157.554 51.3069 157.509 51.3245L156.255 51.7708C156.18 51.797 156.114 51.8423 156.063 51.9023C156.012 51.9622 155.978 52.0347 155.964 52.1122C155.95 52.1897 155.956 52.2696 155.983 52.3437C156.01 52.4177 156.056 52.4834 156.116 52.534L157.054 53.3462C157.116 53.3999 157.191 53.4354 157.272 53.4489L164.185 54.6003H164.239L170.933 54.7075H170.96L175.87 54.4977C175.943 54.496 176.015 54.476 176.079 54.4397L180.038 52.1011C180.118 52.0577 180.181 51.9885 180.217 51.9047L182.189 47.7586L184.943 42.7333L186.282 40.3857C187.035 39.073 188.051 37.9304 189.268 37.0296L192.392 34.6999L189.419 37.6767C188.568 38.5252 187.862 39.5084 187.331 40.5866L185.322 44.6613L183.631 48.1201C183.59 48.2248 183.59 48.3412 183.631 48.4459C183.704 48.6908 183.863 48.9012 184.078 49.0388C184.294 49.1764 184.551 49.2321 184.805 49.1957L187.996 48.7494L191.387 48.1201C191.428 48.1114 191.467 48.0979 191.504 48.0799L193.146 47.2721C195.364 46.1842 197.314 44.6208 198.859 42.6931L200.425 40.7428C200.44 40.7253 200.457 40.7089 200.474 40.6937L201.813 39.4753C201.889 39.3847 201.999 39.3282 202.117 39.3182C202.235 39.3081 202.352 39.3454 202.442 39.4217C202.533 39.4981 202.589 39.6073 202.599 39.7253C202.61 39.8433 202.572 39.9604 202.496 40.051L201.206 42.0504C201.191 42.0723 201.175 42.0932 201.157 42.1129L198.006 45.5226C197.449 46.1241 196.805 46.6386 196.096 47.049L191.91 49.4456L191.847 49.4768L190.629 49.9231C188.436 50.7707 186.081 51.1153 183.738 50.9318L183.434 50.905C183.363 50.8993 183.291 50.911 183.225 50.9389C183.159 50.9669 183.101 51.0104 183.055 51.0657L180.824 53.7435C180.798 53.7773 180.766 53.8061 180.73 53.8283L176.909 56.4034C176.867 56.4313 176.82 56.4524 176.771 56.4659L171.924 57.7155C171.884 57.7199 171.844 57.7199 171.804 57.7155L166.207 57.6352C166.178 57.6396 166.147 57.6396 166.118 57.6352L158.566 56.0464H158.491L157.598 56.0107C155.976 55.9489 154.367 56.3198 152.935 57.0853C151.504 57.8508 150.302 58.9832 149.453 60.3665L149.426 60.4022L148.208 62C147.164 63.3863 145.901 64.5924 144.468 65.5704C143.264 66.3869 142.364 67.5798 141.911 68.9623L141.54 70.1003C141.24 71.016 141.144 71.9864 141.259 72.9432C141.355 73.7127 141.733 74.419 142.321 74.9248L144.204 76.5404L144.231 76.5627C145.169 77.5011 145.838 78.674 146.168 79.9591L146.548 81.4497C146.847 82.5991 147.408 83.664 148.186 84.5618C148.964 85.4597 149.938 86.1662 151.033 86.6268L153.019 87.4613L153.09 87.4971C154.571 88.4741 155.673 89.9274 156.214 91.6164L156.821 93.4998L157.861 96.3739V96.4096L158.669 98.1725C158.713 98.2684 158.788 98.3459 158.883 98.3912L161.481 99.6275C161.539 99.6561 161.603 99.6718 161.668 99.6733C161.732 99.6748 161.797 99.6622 161.856 99.6363C161.916 99.6104 161.969 99.5718 162.012 99.5233C162.055 99.4747 162.087 99.4174 162.106 99.3552C162.804 97.1187 163.715 94.9546 164.828 92.8928C165.154 92.2903 175.267 77.0313 175.365 76.8975L179.784 71.0956L181.908 68.2125C182.737 67.0887 183.716 66.084 184.818 65.2267C185.556 64.6427 186.417 64.2324 187.335 64.0261C188.254 63.8199 189.207 63.8229 190.124 64.0351L190.343 64.0842L194.489 65.0438H194.552L198.278 65.3562C198.344 65.3614 198.409 65.3523 198.47 65.3294L203.134 63.6468C203.227 63.6122 203.305 63.5479 203.357 63.4638L206.624 58.3314C206.642 58.3046 206.657 58.2762 206.669 58.2466L208.793 52.4983C208.812 52.4518 208.838 52.4083 208.869 52.3689L212.323 48.129C212.345 48.1036 212.363 48.075 212.377 48.0442L215.055 42.5101C215.065 42.4811 215.08 42.454 215.099 42.4298L216.363 40.7919C216.424 40.6947 216.521 40.6252 216.633 40.5978C216.745 40.5704 216.863 40.5873 216.962 40.6449C217.062 40.7025 217.136 40.7964 217.168 40.9069C217.2 41.0175 217.188 41.1362 217.135 41.2382L216.84 41.9924L214.863 46.9017C214.842 46.9494 214.814 46.9932 214.778 47.0311L213.734 48.2004C212.289 49.8223 211.161 51.701 210.409 53.739L209.132 57.1978C209.109 57.262 209.1 57.3308 209.107 57.3989C209.114 57.467 209.136 57.5326 209.173 57.5905V57.6218C209.206 57.676 209.25 57.7226 209.302 57.7583C209.355 57.7941 209.414 57.8183 209.477 57.8293C209.539 57.8403 209.603 57.8378 209.665 57.822C209.726 57.8063 209.784 57.7775 209.833 57.7378L212.44 55.6804C212.475 55.6522 212.507 55.6191 212.533 55.5822L215.702 50.9452C215.758 50.8629 215.839 50.8017 215.934 50.7711L216.121 50.7086C216.223 50.6553 216.342 50.6434 216.453 50.6755C216.563 50.7075 216.657 50.7811 216.715 50.8807C216.772 50.9804 216.789 51.0985 216.762 51.2103C216.734 51.3221 216.665 51.419 216.568 51.4807L215.711 52.2171C215.666 52.2557 215.63 52.3027 215.604 52.3555L213.6 56.2829C213.561 56.3585 213.545 56.4436 213.553 56.5282C213.561 56.6128 213.592 56.6933 213.645 56.7604L213.988 57.2067C214.047 57.2872 214.132 57.3454 214.228 57.3721C214.325 57.3988 214.427 57.3925 214.519 57.354L217.197 56.2249C217.227 56.2112 217.255 56.1947 217.282 56.1758L222.383 52.6054L221.044 54.5156C221.036 54.5294 221.026 54.5415 221.013 54.5513L220.027 55.6804C219.964 55.7491 219.924 55.8358 219.913 55.9283C219.902 56.0208 219.92 56.1145 219.965 56.1961C220.009 56.2778 220.079 56.3435 220.163 56.3838C220.247 56.4242 220.341 56.4373 220.433 56.4212L222.28 56.1356C222.345 56.1252 222.411 56.129 222.473 56.1467C222.536 56.1644 222.594 56.1956 222.643 56.2381C222.693 56.2807 222.732 56.3335 222.759 56.3929C222.786 56.4523 222.799 56.5168 222.798 56.5819V56.9925C222.798 57.1109 222.751 57.2244 222.667 57.3081C222.584 57.3918 222.47 57.4388 222.352 57.4388L219.321 57.5772C219.283 57.5732 219.244 57.5732 219.205 57.5772L216.836 58.3448C216.793 58.3494 216.749 58.3494 216.706 58.3448L213.747 58.4207C213.677 58.4211 213.609 58.4379 213.546 58.4698L210.632 60.005C210.602 60.0208 210.571 60.0328 210.538 60.0407L208.936 60.487C208.861 60.5086 208.792 60.5485 208.735 60.6031L205.906 63.4371C205.867 63.4725 205.835 63.5149 205.812 63.562L204.777 65.7935C204.742 65.8677 204.688 65.931 204.62 65.9765L201.996 67.7617C201.94 67.801 201.876 67.827 201.809 67.8376L198.814 68.2839H195.154C195.086 68.2822 195.019 68.296 194.957 68.3243C194.896 68.3526 194.841 68.3946 194.798 68.4471C194.755 68.4996 194.725 68.5613 194.709 68.6273C194.693 68.6934 194.693 68.7621 194.708 68.8284L195.529 72.7379C195.546 72.8203 195.587 72.8961 195.645 72.9566L197.328 74.7106C197.377 74.7648 197.441 74.8048 197.511 74.8266L201.822 76.2369L205.116 77.4419L200.206 76.3976L196.636 75.6076C196.596 75.599 196.557 75.5855 196.52 75.5675C195.214 74.864 194.227 73.687 193.762 72.2783L192.682 68.9801C192.648 68.876 192.577 68.788 192.482 68.7328C192.387 68.6777 192.276 68.6593 192.168 68.6811L189.285 69.23C189.218 69.2436 189.154 69.271 189.098 69.3104L185.876 71.7115C185.782 71.7816 185.719 71.8858 185.702 72.0016L185.345 74.2866C185.329 74.3541 185.329 74.4244 185.345 74.4919C185.539 75.0932 185.514 75.7438 185.275 76.3285C185.035 76.9133 184.597 77.3946 184.037 77.6874L179.203 80.334C178.869 80.5093 178.583 80.7635 178.369 81.0746C178.155 81.3856 178.02 81.7442 177.976 82.1191C177.976 82.1682 171.643 95.16 171.643 95.16C171.628 95.1943 171.618 95.2303 171.612 95.2671L170.742 100.078C170.739 100.1 170.739 100.123 170.742 100.145L170.581 105.947V105.969L170.742 111.771C170.739 111.794 170.739 111.816 170.742 111.838L171.826 117.859C171.838 117.934 171.87 118.004 171.917 118.064C171.964 118.123 172.026 118.17 172.096 118.199C172.166 118.228 172.242 118.238 172.318 118.23C172.393 118.221 172.465 118.193 172.527 118.149L179.976 112.914L184.885 109.205C185.523 108.721 186.277 108.411 187.071 108.308C187.866 108.205 188.674 108.311 189.415 108.616C189.502 108.652 189.597 108.66 189.689 108.638C189.78 108.616 189.862 108.566 189.924 108.495L192.579 105.474C192.598 105.455 192.614 105.434 192.628 105.411L193.909 103.305C194.626 102.125 195.61 101.13 196.782 100.402C197.954 99.6727 199.282 99.2302 200.657 99.1098C200.749 99.1022 200.836 99.0663 200.907 99.0071L202.362 97.7709C203.427 96.8645 204.779 96.3662 206.178 96.365C206.233 96.366 206.287 96.3569 206.339 96.3382L209.556 95.1109C209.61 95.0925 209.659 95.062 209.699 95.0217C211.686 93.1926 213.868 91.5882 216.206 90.2373L216.282 90.1927L216.327 90.1659L222.075 85.8948C222.142 85.8436 222.221 85.8121 222.305 85.8041C222.389 85.7962 222.473 85.812 222.548 85.8497C222.623 85.8875 222.686 85.9457 222.729 86.0176C222.773 86.0896 222.795 86.1723 222.794 86.2563V89.3224C222.795 89.3898 222.78 89.4566 222.752 89.5177C222.723 89.5787 222.681 89.6325 222.629 89.675L218.656 92.8928L218.612 92.9285L215.305 94.9726C215.274 94.9898 215.247 95.0125 215.224 95.0395L214.144 96.1195C214.086 96.1766 214.014 96.2168 213.935 96.2356L210.012 97.2353C209.976 97.244 209.941 97.2575 209.909 97.2755L207.619 98.4983C207.571 98.5219 207.529 98.5553 207.494 98.5965L206.316 99.9354C206.281 99.9753 206.238 100.009 206.191 100.034L203.397 101.506L203.344 101.538L198.274 105.184C198.243 105.204 198.216 105.23 198.194 105.26L196.408 107.326C196.377 107.366 196.352 107.409 196.332 107.456L195.333 110.004C195.188 110.375 195.122 110.772 195.14 111.17C195.157 111.569 195.257 111.959 195.433 112.316C195.61 112.673 195.858 112.99 196.164 113.246C196.469 113.501 196.825 113.691 197.207 113.802C197.232 113.807 197.258 113.807 197.283 113.802L200.086 114.114H200.184L203.817 113.731C203.879 113.722 203.94 113.702 203.995 113.672L208.905 110.825L211.899 109.25C211.938 109.231 211.978 109.216 212.02 109.205L215.501 108.513C215.548 108.503 215.594 108.485 215.635 108.46L217.987 107.121C218.079 107.06 218.19 107.035 218.299 107.051C218.408 107.067 218.507 107.123 218.577 107.208C218.647 107.293 218.684 107.4 218.68 107.51C218.675 107.62 218.63 107.725 218.554 107.804L216.974 109.647C216.9 109.735 216.794 109.791 216.679 109.803L213.247 110.174C213.191 110.18 213.137 110.197 213.087 110.223L207.428 113.208C207.395 113.227 207.365 113.249 207.338 113.275L205.977 114.507C205.93 114.549 205.892 114.6 205.865 114.658C205.839 114.716 205.826 114.778 205.826 114.842C205.826 114.905 205.839 114.968 205.865 115.025C205.892 115.083 205.93 115.135 205.977 115.177L207.981 116.962L208.057 117.011L209.248 117.716C209.336 117.768 209.438 117.788 209.539 117.774L214.671 117.105L217.09 116.716C217.137 116.707 217.186 116.707 217.233 116.716L219.728 117.163C219.827 117.177 219.919 117.224 219.988 117.298C220.058 117.371 220.1 117.465 220.109 117.565C220.118 117.666 220.092 117.766 220.037 117.85C219.981 117.934 219.899 117.997 219.803 118.028L217.193 118.966H217.13L213.506 119.675H213.426L208.432 119.756C208.361 119.756 208.291 119.741 208.226 119.711L204.634 117.953C204.577 117.924 204.527 117.885 204.486 117.836L203.313 116.457C203.272 116.409 203.222 116.369 203.165 116.342C203.108 116.314 203.046 116.299 202.982 116.297L200.095 116.225C200.067 116.228 200.038 116.228 200.01 116.225L196.779 115.516H196.734L193.382 115.123C193.329 115.119 193.277 115.104 193.231 115.078L192.137 114.534C192.061 114.493 191.973 114.477 191.887 114.489L186.889 115.034H186.862L185.644 115.248C185.557 115.264 185.477 115.305 185.411 115.364L181.52 117.948C181.27 118.113 181.024 118.296 180.779 118.493C179.215 119.778 177.98 121.419 177.178 123.278C176.376 125.137 176.03 127.161 176.169 129.181L176.664 137.42C176.23 140.814 176.326 144.254 176.95 147.618L177.021 147.98C177.539 150.765 177.713 153.604 177.539 156.432V156.495C177.5 157.124 177.569 157.755 177.744 158.36C178.333 160.436 179.73 165.318 179.73 165.318L179.797 165.582C180.925 169.992 181.45 174.535 181.359 179.087L181.337 180.077V180.126L181.814 185.518C181.812 185.549 181.812 185.58 181.814 185.611L182.537 187.919C182.558 187.986 182.594 188.047 182.643 188.097C182.692 188.148 182.752 188.186 182.818 188.209L185.751 189.235C185.795 189.253 185.836 189.276 185.876 189.302L190.415 192.748C190.456 192.779 190.492 192.817 190.522 192.859L192.833 196.43C192.87 196.48 192.915 196.524 192.967 196.559L197.533 199.496C197.533 199.496 137.381 199.42 140.371 199.42Z" fill="#F46534"/>
<path d="M122.443 110.205C121.684 109.035 120.965 107.839 120.256 106.634C119.546 105.429 118.859 104.229 118.176 103.015L118.39 103.198L116.128 102.43L113.896 101.64C113.832 101.617 113.774 101.579 113.727 101.529C113.679 101.48 113.644 101.42 113.624 101.355C113.302 100.288 112.972 99.2123 112.624 98.1546C112.45 97.628 112.276 97.0969 112.08 96.5881C112.03 96.4632 111.977 96.3382 111.923 96.2177C111.885 96.1269 111.84 96.0389 111.789 95.9544C111.805 95.9727 111.825 95.9866 111.848 95.9945L111.772 95.9365C111.721 95.8986 111.673 95.8568 111.629 95.8116L111.482 95.633C111.383 95.517 111.307 95.401 111.218 95.2849C110.549 94.3611 109.946 93.4149 109.344 92.4598C108.741 91.5048 108.17 90.5408 107.625 89.5544C108.335 90.447 109.018 91.3396 109.71 92.2055C110.401 93.0713 111.075 93.9907 111.772 94.852C111.861 94.9547 111.95 95.0662 112.035 95.16L112.164 95.2983C112.216 95.3269 112.264 95.3614 112.307 95.401C112.423 95.5362 112.521 95.6863 112.597 95.8473C112.663 95.9811 112.725 96.115 112.785 96.2489C113.012 96.78 113.231 97.3067 113.405 97.8422C113.774 98.9104 114.124 99.983 114.454 101.06L114.177 100.77L116.409 101.587L118.64 102.426C118.727 102.46 118.799 102.525 118.841 102.609C119.472 103.849 120.086 105.099 120.684 106.358C121.309 107.656 121.894 108.924 122.443 110.205Z" fill="#F46534"/>
<path d="M111.214 94.7406C111.352 93.9149 111.517 93.0982 111.682 92.2814V92.4376C111.107 91.5451 110.544 90.6525 109.995 89.7599C109.714 89.3136 109.451 88.8673 109.179 88.421C108.906 87.9747 108.639 87.5284 108.38 87.0821C108.351 87.0215 108.335 86.9552 108.335 86.8879C108.335 86.8207 108.351 86.7543 108.38 86.6938C108.883 85.578 109.4 84.4712 109.933 83.3733L109.991 83.8196C109.545 83.2662 109.098 82.6949 108.652 82.1326C108.206 81.5703 107.782 80.9945 107.344 80.4277C107.304 80.3754 107.284 80.3107 107.286 80.2448C107.286 79.8699 107.327 79.495 107.344 79.1201L107.411 77.9954C107.46 77.2456 107.523 76.4958 107.603 75.7639C107.684 76.5137 107.742 77.2635 107.795 77.9954L107.862 79.1201C107.862 79.495 107.907 79.8699 107.92 80.2448L107.849 80.0439C108.322 80.5795 108.804 81.1106 109.272 81.6551C109.741 82.1996 110.21 82.7351 110.669 83.2885C110.718 83.3511 110.749 83.4254 110.759 83.5038C110.769 83.5822 110.758 83.662 110.727 83.7348C110.228 84.8461 109.705 85.9663 109.174 87.0553V86.6581C109.433 87.1044 109.679 87.5775 109.924 88.0371C110.169 88.4968 110.428 88.9565 110.665 89.4251C111.151 90.3534 111.624 91.2862 112.084 92.2324V92.2547C112.093 92.2759 112.098 92.2986 112.098 92.3216C112.098 92.3446 112.093 92.3673 112.084 92.3886C111.807 93.1785 111.526 93.964 111.214 94.7406Z" fill="#F46534"/>
<path d="M110.33 83.5562C110.413 82.8869 110.563 82.2276 110.776 81.588C110.978 80.9594 111.215 80.3425 111.486 79.7403C111.52 79.663 111.578 79.5988 111.651 79.5573C112.123 79.2798 112.609 79.0266 113.106 78.7986C113.352 78.6781 113.61 78.5799 113.869 78.4773C114.132 78.3764 114.4 78.2915 114.673 78.2229C114.488 78.4331 114.291 78.6328 114.084 78.8209C113.874 79.0039 113.668 79.1914 113.45 79.3565C113.02 79.6973 112.573 80.0161 112.111 80.3116L112.285 80.1107C112.037 80.7216 111.754 81.3176 111.437 81.8959C111.121 82.4829 110.75 83.0388 110.33 83.5562ZM106.077 104.568C105.369 104.045 104.697 103.475 104.064 102.863C103.743 102.569 103.439 102.252 103.131 101.944C102.823 101.636 102.529 101.314 102.239 100.993L102.404 101.105C101.993 100.944 101.587 100.774 101.185 100.596C100.788 100.408 100.382 100.239 99.9893 100.038C99.1879 99.6535 98.4126 99.2167 97.6685 98.7303C98.5418 98.8926 99.4035 99.1118 100.248 99.3864C100.672 99.5114 101.083 99.6676 101.502 99.8104C101.922 99.9532 102.323 100.114 102.734 100.279C102.796 100.304 102.853 100.342 102.899 100.391C103.189 100.716 103.479 101.042 103.761 101.377C104.042 101.712 104.318 102.046 104.582 102.399C105.129 103.087 105.628 103.812 106.077 104.568ZM98.7441 104.88L95.446 106.541L95.5174 106.474L93.7322 110.388C93.7081 110.443 93.6656 110.489 93.6117 110.517L90.5634 112.142L90.8089 111.829L89.9163 115.44V115.462C89.8993 115.532 89.8562 115.593 89.7958 115.632L87.1582 117.243C87.121 117.258 87.0793 117.258 87.0421 117.243L82.5791 116.319L87.1046 116.89L86.9796 116.917L89.4789 115.105L89.354 115.292L89.9609 111.619C89.9723 111.552 90.0003 111.489 90.0424 111.435C90.0845 111.381 90.1393 111.339 90.2019 111.312L93.3662 109.932L93.2234 110.071L95.3032 106.308C95.3182 106.284 95.3398 106.264 95.3656 106.25L98.7441 104.88Z" fill="#F46534"/>
<path d="M95.3881 106.389C94.2857 106.094 93.2012 105.76 92.1078 105.443C91.5588 105.287 91.0188 105.108 90.4743 104.943C89.9298 104.778 89.3898 104.608 88.8498 104.43C88.8097 104.417 88.7726 104.397 88.7406 104.369C88.7086 104.342 88.6822 104.309 88.6631 104.272C88.644 104.234 88.6326 104.194 88.6293 104.152C88.6261 104.11 88.6313 104.068 88.6445 104.028C89.1309 102.511 89.6486 101.002 90.1619 99.4936V99.8283C89.4433 98.4046 88.7114 96.9854 88.0107 95.5528L88.0464 95.6108C87.3011 94.5754 86.5602 93.531 85.8149 92.4867L85.9354 92.5983C85.1544 92.1252 84.3823 91.6343 83.6102 91.1478C83.5734 91.1243 83.5417 91.0937 83.5172 91.0576C83.4926 91.0215 83.4757 90.9809 83.4674 90.938C83.3736 90.3802 83.2844 89.8223 83.204 89.2644C83.1237 88.7065 83.0255 88.1531 82.9541 87.5908C82.8024 86.4706 82.6328 85.3593 82.5078 84.2346C82.8113 85.3236 83.0657 86.4215 83.3469 87.5149C83.4897 88.0639 83.6057 88.6128 83.7396 89.1618C83.8735 89.7107 83.994 90.2597 84.1145 90.8131L83.9583 90.5899C84.7572 91.0362 85.5561 91.4825 86.3505 91.9288C86.3922 91.9543 86.4285 91.9877 86.4576 92.027C87.2282 93.0446 87.9899 94.071 88.7426 95.1065L88.7783 95.16C89.5058 96.5792 90.202 98.0163 90.9117 99.449C90.9348 99.5009 90.9468 99.5572 90.9468 99.6141C90.9468 99.671 90.9348 99.7272 90.9117 99.7792C90.3538 101.27 89.7959 102.76 89.2113 104.242L89.0104 103.823C89.5415 104.024 90.0726 104.229 90.5993 104.443C91.1259 104.657 91.657 104.858 92.1836 105.077C93.2771 105.505 94.3482 105.925 95.3881 106.389Z" fill="#F46534"/>
<path d="M88.9614 104.122C88.2741 103.93 87.6225 103.675 86.9397 103.47C86.2569 103.265 85.6008 102.988 84.9626 102.729C84.8901 102.7 84.8301 102.646 84.793 102.577V102.542C84.5922 102.127 84.4047 101.698 84.2128 101.279C84.0209 100.859 83.829 100.431 83.6505 100.002C83.2756 99.1499 82.9275 98.293 82.5838 97.4316L82.682 97.5745C81.9099 96.8113 81.1556 96.0303 80.4103 95.2359C79.665 94.4414 78.9464 93.6247 78.2681 92.7678C79.1607 93.406 79.9997 94.1067 80.8343 94.794C81.6689 95.4813 82.4767 96.2177 83.2756 96.9541C83.3172 96.9887 83.3495 97.0332 83.3693 97.0835C83.7353 97.936 84.1012 98.7884 84.4449 99.6498C84.6204 100.078 84.79 100.511 84.9537 100.948C85.1143 101.395 85.2884 101.814 85.4401 102.252L85.2571 102.064C85.8864 102.377 86.5113 102.707 87.1316 103.042C87.752 103.376 88.3679 103.742 88.9614 104.122Z" fill="#F46534"/>
<path d="M82.9628 97.2665C82.2253 97.6218 81.4649 97.9275 80.6866 98.1814C79.919 98.4447 79.1424 98.6723 78.357 98.8731C78.2843 98.8915 78.2083 98.8914 78.1357 98.8727C78.0632 98.8539 77.9965 98.8173 77.9419 98.766C77.3081 98.1591 76.7101 97.5164 76.1299 96.8514C75.8398 96.5211 75.5586 96.1819 75.2819 95.8338C75.0052 95.4857 74.7419 95.1287 74.5054 94.7493C74.8892 94.9814 75.2418 95.2492 75.5988 95.5125C75.9558 95.7758 76.295 96.0615 76.6298 96.3471C77.2992 96.9183 77.9464 97.5119 78.5667 98.1323L78.1472 98.0162C78.9327 97.8243 79.7271 97.6592 80.526 97.5298C81.3315 97.3879 82.1456 97.2999 82.9628 97.2665ZM124.313 60.42C123.465 59.8309 122.643 59.2105 121.836 58.5768C121.028 57.9431 120.229 57.3004 119.443 56.6399L119.519 56.6934C118.832 56.3542 118.145 56.0195 117.462 55.6625C117.374 55.615 117.305 55.5396 117.266 55.4482C116.931 54.6672 116.609 53.8862 116.297 53.0962C115.985 52.3063 115.681 51.5119 115.378 50.7175L115.578 50.9272C115.132 50.713 114.686 50.4809 114.24 50.2578C113.793 50.0346 113.347 49.8115 112.901 49.5705C112.008 49.1242 111.156 48.6243 110.303 48.1111C111.254 48.4146 112.187 48.7582 113.11 49.1108C113.557 49.2893 114.039 49.4678 114.494 49.6553C114.949 49.8427 115.418 50.0212 115.873 50.2221C115.958 50.2574 116.025 50.3248 116.06 50.4095C116.404 51.1861 116.748 51.9626 117.069 52.7481C117.39 53.5336 117.721 54.3146 118.033 55.1046L117.832 54.8814C118.511 55.2429 119.171 55.6178 119.85 55.9927L119.908 56.0374C120.657 56.738 121.398 57.4477 122.139 58.1751C122.88 58.9026 123.625 59.6524 124.313 60.42Z" fill="#F46534"/>
<path d="M117.667 55.2787C117.011 55.2117 116.364 55.1001 115.717 54.993C115.07 54.8859 114.436 54.7476 113.798 54.6092H113.972C113.602 54.7163 113.227 54.81 112.856 54.9082C112.486 55.0064 112.111 55.1001 111.736 55.1894C110.991 55.3724 110.241 55.5375 109.504 55.6937C109.416 55.7141 109.324 55.7047 109.241 55.6669C108.795 55.4616 108.349 55.2206 107.902 55.0198C107.456 54.819 107.01 54.5735 106.563 54.337C106.117 54.1004 105.671 53.8684 105.251 53.614C104.832 53.3596 104.385 53.1096 103.961 52.8374C104.448 52.9668 104.925 53.1141 105.403 53.2837C105.881 53.4533 106.349 53.6095 106.818 53.7791C107.286 53.9487 107.755 54.1227 108.215 54.3147C108.674 54.5066 109.143 54.6851 109.598 54.8859L109.326 54.8591C110.076 54.6762 110.826 54.5021 111.557 54.3504C111.932 54.2656 112.312 54.1897 112.691 54.1183C113.07 54.0469 113.445 53.971 113.825 53.9085H113.865C113.909 53.8974 113.955 53.8974 113.999 53.9085C114.619 54.1094 115.239 54.3236 115.851 54.5467C116.462 54.7699 117.065 55.0064 117.667 55.2787Z" fill="#F46534"/>
<path d="M113.891 54.2611C113.564 54.0064 113.257 53.7274 112.972 53.4265C112.691 53.1319 112.419 52.8284 112.169 52.5339L112.312 52.6589C111.954 52.5071 111.615 52.3286 111.272 52.1501C110.928 51.9716 110.602 51.7752 110.276 51.5654C109.951 51.3557 109.629 51.1414 109.321 50.9094C109.005 50.6726 108.707 50.413 108.429 50.1328C108.817 50.2043 109.199 50.3073 109.571 50.4407C109.939 50.57 110.3 50.719 110.651 50.887C111.008 51.0388 111.352 51.2084 111.691 51.3869C112.03 51.5654 112.37 51.7529 112.691 51.9626L112.744 51.9983C112.78 52.0222 112.81 52.0525 112.834 52.0876C113.043 52.4357 113.24 52.7883 113.418 53.1587C113.604 53.5133 113.763 53.8819 113.891 54.2611ZM126.584 47.1515C125.692 46.0001 124.857 44.8308 124.031 43.6436L124.205 43.7686C123.514 43.6615 122.826 43.5276 122.135 43.3981C121.787 43.3312 121.443 43.2643 121.095 43.1839L120.831 43.117L120.693 43.0768H120.581L120.519 43.05C120.474 43.0332 120.432 43.009 120.394 42.9786C120.342 42.9314 120.297 42.8773 120.26 42.818C120.238 42.7862 120.22 42.7517 120.207 42.7153L120.171 42.6394C120.122 42.5368 120.104 42.4609 120.068 42.3672C119.832 41.6754 119.658 41.0015 119.488 40.3187C119.318 39.6358 119.149 38.953 119.002 38.2657L119.1 38.4621L117.346 36.4403L117.462 36.5341C116.212 35.814 114.971 35.0836 113.74 34.3427C113.706 34.3229 113.676 34.2959 113.654 34.2635C113.632 34.2311 113.617 34.1941 113.61 34.1553C113.463 33.3296 113.307 32.5085 113.164 31.6783C113.021 30.8482 112.896 30.0181 112.785 29.188C113.043 29.9869 113.293 30.7902 113.525 31.5935C113.758 32.3969 113.972 33.2091 114.208 34.0169L114.057 33.8161C115.342 34.4618 116.62 35.1238 117.89 35.8021C117.929 35.8243 117.964 35.853 117.993 35.8869L119.778 37.8819C119.828 37.9342 119.864 37.9989 119.881 38.0693L120.327 40.1045C120.492 40.7784 120.653 41.4434 120.836 42.1083C120.858 42.1798 120.885 42.2779 120.907 42.3315V42.3761C120.893 42.3529 120.871 42.3355 120.845 42.327H120.925L121.037 42.3627L121.278 42.4341L122.282 42.7019L124.313 43.2196H124.335C124.367 43.2284 124.397 43.2436 124.423 43.2643C124.449 43.285 124.471 43.3108 124.487 43.3401C125.219 44.5987 125.919 45.8617 126.584 47.1515Z" fill="#F46534"/>
<path d="M119.979 40.4525C118.613 40.7917 117.234 41.0684 115.86 41.3451H115.909L114.4 41.8896C114.344 41.9087 114.283 41.913 114.225 41.9021C114.166 41.8911 114.111 41.8653 114.065 41.8271H114.043C113.503 41.3808 112.976 40.8899 112.441 40.4213C111.905 39.9527 111.388 39.4662 110.861 38.9887L110.928 39.0422C110.482 38.7655 110.035 38.4799 109.562 38.1942L108.223 37.3373L108.446 37.3998C107.215 37.376 105.983 37.3388 104.751 37.2883H104.72C104.677 37.2881 104.635 37.2758 104.599 37.2526C103.992 36.8687 103.376 36.4938 102.774 36.1011C102.171 35.7084 101.569 35.3112 100.989 34.8961C101.652 35.1758 102.311 35.4733 102.966 35.7887C103.622 36.0922 104.265 36.4135 104.912 36.7259L104.764 36.6858C105.996 36.6322 107.228 36.595 108.46 36.5742C108.533 36.5713 108.606 36.5899 108.67 36.6277L110.04 37.4578C110.486 37.7346 110.959 38.0113 111.41 38.2969L111.468 38.3415C111.986 38.828 112.508 39.31 113.021 39.8009C113.534 40.2918 114.043 40.7872 114.547 41.2871L114.19 41.2068L115.735 40.7872H115.784C117.172 40.6132 118.569 40.5016 119.979 40.4525ZM128.78 41.7914C127.966 40.527 127.18 39.2443 126.423 37.9443C126.156 37.3864 125.897 36.8241 125.638 36.2573C125.379 35.6905 125.12 35.1326 124.87 34.5658C124.852 34.522 124.841 34.4751 124.839 34.4275C124.839 33.6197 124.799 32.8119 124.799 32.0041V29.5807L124.844 29.777L123.589 27.2242L122.389 24.6714C122.377 24.6493 122.369 24.625 122.367 24.6C122.063 22.9844 121.769 21.3643 121.519 19.7398C121.51 19.7092 121.51 19.6767 121.519 19.6461C121.935 18.9409 122.362 18.2447 122.8 17.5574C122.487 18.3116 122.166 19.0614 121.827 19.7889V19.6728C122.273 21.2617 122.67 22.8549 123.067 24.4527L123.036 24.3634L124.33 26.8716L125.589 29.3932C125.622 29.455 125.639 29.524 125.638 29.5941V32.0175C125.638 32.8253 125.611 33.6331 125.598 34.4409L125.571 34.2891C125.803 34.8604 126.017 35.4406 126.245 36.0208C126.473 36.601 126.691 37.1767 126.905 37.7613C127.557 39.0422 128.186 40.4079 128.78 41.7914Z" fill="#F46534"/>
<path d="M122.733 24.484C122.399 24.3165 122.075 24.1318 121.76 23.9306C121.448 23.7298 121.144 23.5245 120.867 23.3058C120.276 22.8744 119.707 22.4126 119.163 21.9223C119.096 21.8639 119.051 21.7856 119.033 21.6991C118.895 21.0698 118.774 20.4316 118.698 19.789C118.606 19.1387 118.567 18.4819 118.582 17.8252C118.884 18.3995 119.141 18.9963 119.35 19.6104C119.564 20.2263 119.743 20.8467 119.899 21.476L119.756 21.2439C120.314 21.717 120.841 22.2257 121.349 22.7524C121.604 23.0157 121.849 23.2924 122.086 23.5736C122.318 23.8653 122.534 24.1692 122.733 24.484ZM127.272 38.962C127.147 37.4088 127.056 35.8557 127 34.3026C126.943 32.7495 126.898 31.1964 126.866 29.6432L126.893 29.7816C126.647 29.1657 126.411 28.5498 126.178 27.925C126.155 27.8722 126.143 27.8153 126.143 27.7576C126.143 27.7 126.155 27.643 126.178 27.5903L127.214 25.4123V25.8006L126.183 23.6227C126.143 23.533 126.133 23.4326 126.156 23.337C126.692 21.3599 127.241 19.3873 127.834 17.428V17.5441C127.638 16.0043 127.468 14.4646 127.343 12.9204C127.723 14.4244 128.062 15.9374 128.379 17.4503C128.383 17.4814 128.383 17.513 128.379 17.5441V17.5664C127.955 19.5703 127.486 21.5608 127.004 23.5513L126.977 23.2567L128.035 25.4168C128.063 25.4778 128.077 25.544 128.077 25.6109C128.077 25.6779 128.063 25.744 128.035 25.8051L126.977 27.9696V27.6304C127.205 28.2552 127.424 28.8801 127.642 29.5049C127.649 29.5463 127.649 29.5884 127.642 29.6298C127.621 31.183 127.578 32.7361 127.513 34.2892C127.486 35.8557 127.401 37.4088 127.272 38.962ZM139.135 35.0301C139.135 33.9679 139.135 32.9146 139.193 31.8613C139.251 30.8081 139.291 29.7548 139.367 28.7015C139.37 28.6578 139.382 28.6152 139.402 28.5766V28.5543C139.755 27.8357 140.116 27.1172 140.487 26.4076C140.857 25.698 141.228 24.9839 141.612 24.2787L141.567 24.551C141.464 23.8815 141.366 23.2121 141.281 22.5382C141.196 21.8642 141.103 21.1993 141.027 20.5164V20.4896C141.022 20.4376 141.031 20.3851 141.054 20.3379C141.375 19.6372 141.714 18.9499 142.053 18.2581C142.393 17.5664 142.75 16.8835 143.129 16.2096C142.919 16.9505 142.683 17.6869 142.433 18.4144C142.183 19.1418 141.937 19.8737 141.67 20.5923L141.692 20.4138C141.832 21.0773 141.961 21.7423 142.08 22.4087C142.21 23.0782 142.326 23.7476 142.433 24.4126C142.447 24.5039 142.433 24.5974 142.393 24.6804C142.027 25.3945 141.652 26.1041 141.268 26.8092C140.893 27.5189 140.5 28.2195 140.107 28.9202L140.148 28.773C140.018 29.8218 139.875 30.8661 139.701 31.897C139.527 32.928 139.358 33.9946 139.135 35.0301Z" fill="#F46534"/>
<path d="M142.008 24.4838C142.901 23.5387 143.845 22.6447 144.838 21.806C145.329 21.3954 145.829 20.9848 146.333 20.5832C146.837 20.1815 147.337 19.7798 147.846 19.3871L147.708 19.5745C147.864 19.1595 148.047 18.7533 148.212 18.3427C148.377 17.9321 148.569 17.5349 148.748 17.1243C148.926 16.7138 149.118 16.321 149.323 15.9238C149.529 15.5266 149.734 15.174 149.957 14.7634C149.872 15.2097 149.779 15.656 149.667 16.0711C149.555 16.4861 149.439 16.9324 149.323 17.3609C149.207 17.7893 149.073 18.2133 148.935 18.6328C148.797 19.0524 148.667 19.4763 148.489 19.8914C148.463 19.9631 148.418 20.0264 148.359 20.0744C147.859 20.485 147.364 20.8956 146.846 21.2839C146.329 21.6721 145.811 22.0515 145.284 22.4219C144.233 23.1714 143.139 23.8598 142.008 24.4838ZM139.134 35.1414C139.915 34.7933 140.714 34.4854 141.509 34.173C142.303 33.8606 143.106 33.5794 143.91 33.2804L143.74 33.3964C144.03 33.0037 144.334 32.6243 144.633 32.2405C144.932 31.8567 145.226 31.4729 145.525 31.098C146.132 30.3437 146.744 29.585 147.369 28.8665L147.279 29.0093C147.494 28.2327 147.726 27.4606 147.962 26.6885C148.199 25.9164 148.449 25.1533 148.699 24.3856V24.3589C148.711 24.3195 148.732 24.2836 148.761 24.2541C148.789 24.2246 148.825 24.2024 148.864 24.1893C150.042 23.7965 151.225 23.4216 152.434 23.1003C151.336 23.6849 150.203 24.2205 149.087 24.7382L149.265 24.5418C149.082 25.3273 148.913 26.1173 148.712 26.8983C148.511 27.6793 148.328 28.4603 148.114 29.2414C148.098 29.296 148.072 29.3474 148.038 29.3931C147.435 30.1518 146.811 30.8927 146.186 31.6246C145.878 31.9995 145.557 32.361 145.24 32.7314C144.923 33.1019 144.61 33.4678 144.285 33.8249L144.262 33.8516C144.221 33.8953 144.169 33.9263 144.111 33.9409C143.289 34.1581 142.464 34.3664 141.634 34.5657C140.808 34.8112 139.978 34.9897 139.134 35.1414ZM164.819 40.2426C166.011 39.2786 167.224 38.3503 168.447 37.4399L168.336 37.6318C168.428 36.0162 168.543 34.405 168.679 32.7984C168.679 32.7984 168.679 32.7582 168.679 32.7404C169.001 31.5264 169.344 30.3214 169.688 29.1119C169.709 29.0423 169.746 28.9783 169.795 28.9245C170.362 28.3577 170.947 27.7998 171.522 27.2419C172.098 26.6841 172.678 26.1173 173.267 25.5683L173.142 25.8673C173.166 24.3797 173.202 22.8801 173.25 21.3687V21.3463C173.251 21.2724 173.282 21.202 173.334 21.15C174.7 19.8914 176.07 18.6373 177.489 17.4323C176.28 18.8471 175.026 20.2172 173.767 21.5829L173.857 21.3687C173.906 22.8682 173.946 24.3678 173.968 25.8673C173.968 25.9727 173.926 26.0736 173.852 26.1485C173.29 26.7242 172.71 27.2866 172.138 27.8534C171.567 28.4202 170.996 28.987 170.416 29.5404L170.532 29.3485C170.175 30.5535 169.822 31.754 169.447 32.9546V32.8832C169.263 34.4869 169.056 36.0876 168.827 37.6853C168.821 37.7198 168.808 37.7528 168.789 37.782C168.77 37.8112 168.745 37.836 168.715 37.8549C167.441 38.6899 166.141 39.4862 164.819 40.2426Z" fill="#F46534"/>
<path d="M169.081 32.8386C168.898 31.2855 168.8 29.7146 168.733 28.1793V28.2864C168.47 27.6169 168.233 26.9475 167.983 26.2602C167.733 25.5729 167.514 24.899 167.278 24.2206C167.241 24.1212 167.241 24.0121 167.278 23.9127C167.915 22.425 168.583 20.9507 169.282 19.4898L169.255 19.588C169.38 18.7847 169.518 17.9769 169.666 17.1736C169.813 16.3702 169.978 15.5669 170.174 14.7725C170.167 16.408 170.097 18.0426 169.965 19.6728C169.969 19.6964 169.969 19.7207 169.965 19.7442V19.771C169.384 21.284 168.764 22.7791 168.117 24.2652V23.9484C168.336 24.6357 168.563 25.3185 168.773 26.0058C168.983 26.6931 169.197 27.3804 169.389 28.0766V28.1079C169.393 28.1345 169.393 28.1616 169.389 28.1882C169.362 29.7324 169.264 31.2855 169.081 32.8386ZM173.58 25.8496C174.071 25.0775 174.593 24.3411 175.133 23.6181L175.093 23.6806C175.204 23.386 175.325 23.0959 175.441 22.788C175.557 22.48 175.673 22.2033 175.802 21.8954C176.052 21.3197 176.293 20.7395 176.561 20.1682C176.597 20.0966 176.652 20.036 176.719 19.9928C176.787 19.9496 176.865 19.9254 176.945 19.9228H179.114C179.154 19.9178 179.194 19.9178 179.234 19.9228C179.681 20.0611 180.087 20.1995 180.511 20.3691C180.935 20.5386 181.359 20.6591 181.783 20.8154H181.653H183.63C184.291 20.8154 184.947 20.86 185.612 20.9225C184.96 21.0653 184.309 21.1635 183.657 21.2661C183.006 21.3688 182.349 21.4446 181.698 21.516C181.668 21.5206 181.638 21.5206 181.609 21.516H181.568C181.122 21.4089 180.703 21.2795 180.265 21.1635C179.828 21.0474 179.404 20.918 178.975 20.7886H179.105H176.936L177.329 20.5386C177.061 21.1054 176.762 21.6633 176.481 22.2257C176.338 22.5068 176.182 22.7791 176.034 23.0602C175.887 23.3414 175.74 23.6136 175.588 23.8859L175.566 23.9261C174.938 24.6022 174.275 25.2443 173.58 25.8496ZM168.599 37.6587C169.692 37.373 170.795 37.1544 171.897 36.9446L171.763 36.9937C172.428 36.4849 173.102 35.9717 173.772 35.4852C174.441 34.9987 175.133 34.5078 175.82 34.0258C175.867 33.9917 175.921 33.9677 175.978 33.9554C176.035 33.9431 176.093 33.9428 176.15 33.9544C176.686 34.0615 177.217 34.1909 177.753 34.3114C178.288 34.4319 178.824 34.5569 179.355 34.6908L178.993 34.7934C179.704 34.1418 180.43 33.5036 181.171 32.8788C181.912 32.254 182.666 31.647 183.447 31.0668C182.836 31.8256 182.198 32.553 181.542 33.2671C180.886 33.9812 180.225 34.6819 179.547 35.3692C179.503 35.4137 179.45 35.4468 179.391 35.4655C179.331 35.4842 179.269 35.4879 179.208 35.4763H179.185C178.645 35.3781 178.105 35.2754 177.57 35.1639C177.034 35.0523 176.494 34.9496 175.963 34.8247L176.307 34.7533C175.61 35.1996 174.923 35.695 174.213 36.1457C173.504 36.5965 172.803 37.0383 172.089 37.4846H172.058C172.027 37.5036 171.991 37.5143 171.955 37.5159C170.848 37.6051 169.728 37.6587 168.599 37.6587ZM201.755 40.2204C201.888 39.3827 202.089 38.5573 202.357 37.7524C202.625 36.9535 202.915 36.168 203.25 35.4004C203.286 35.326 203.343 35.2632 203.413 35.219C203.483 35.1749 203.564 35.1511 203.647 35.1505C204.272 35.1683 204.897 35.2085 205.521 35.271C206.153 35.3346 206.779 35.442 207.396 35.5923C206.779 35.7412 206.153 35.8471 205.521 35.9092C204.897 35.9717 204.272 36.0118 203.647 36.0297L204.053 35.7574C203.759 36.5429 203.41 37.3061 203.04 38.0603C202.672 38.8144 202.242 39.5369 201.755 40.2204Z" fill="#F46534"/>
<path d="M8.7832 36.4492C11.8173 34.2693 15.0475 32.3763 18.4322 30.7946C21.8244 29.2128 25.3684 27.9791 29.0096 27.1127C32.6678 26.2989 36.378 25.7397 40.1136 25.439C41.9746 25.2695 43.8312 25.0775 45.7012 24.966C47.5713 24.8544 49.4323 24.783 51.2979 24.7205L62.4822 24.4438L73.6754 24.2117C74.6082 24.1805 75.5365 24.1269 76.4559 24.0198C77.3753 23.9127 78.2946 23.7565 79.2095 23.5735C81.0373 23.2185 82.8433 22.7596 84.6187 22.1989C88.18 21.0837 91.6191 19.6109 94.8837 17.8029C91.6473 19.679 88.229 21.2222 84.6812 22.4087C82.9032 22.9939 81.0926 23.4753 79.2586 23.8502C78.366 24.0332 77.4199 24.2028 76.4916 24.2965C75.5633 24.3902 74.6216 24.4795 73.6888 24.5241C69.9488 24.6759 66.2222 24.7071 62.4911 24.8187L51.3246 25.1802C49.4591 25.2382 47.5936 25.3007 45.7325 25.4033C43.8714 25.506 42.0193 25.6934 40.1626 25.8496C36.4443 26.1424 32.7487 26.6746 29.0988 27.4429C25.4632 28.2606 21.9194 29.4433 18.5215 30.9732C15.1112 32.4898 11.8508 34.3232 8.7832 36.4492ZM146.329 9.93462C148.923 8.33248 151.662 6.97723 154.51 5.88668C157.368 4.80552 160.329 4.01747 163.346 3.53469C166.368 3.09702 169.416 2.87035 172.469 2.85631C173.991 2.82507 175.512 2.78044 177.039 2.80722C178.565 2.834 180.087 2.88309 181.609 2.94557C187.692 3.21335 193.775 3.55254 199.845 3.8828C201.358 3.95802 202.876 3.90127 204.379 3.71321C205.881 3.53875 207.371 3.27798 208.842 2.93218C211.813 2.24903 214.706 1.26661 217.478 0C214.735 1.33516 211.864 2.38933 208.909 3.14641C207.426 3.52165 205.922 3.81221 204.406 4.01669C202.891 4.22778 201.36 4.30544 199.831 4.24877C196.779 4.15504 193.748 3.94975 190.705 3.80247L181.587 3.39634C180.069 3.32939 178.547 3.26691 177.03 3.24013C175.512 3.21335 173.995 3.24013 172.473 3.26691C169.437 3.27962 166.405 3.48533 163.395 3.8828C160.39 4.328 157.436 5.07563 154.581 6.1143C151.719 7.13118 148.956 8.41004 146.329 9.93462ZM20.6057 89.7552C22.1722 90.2015 23.7611 90.5898 25.3588 90.9022C26.9566 91.2146 28.5767 91.4511 30.1878 91.6832C31.7908 91.9492 33.4143 92.0717 35.0391 92.0492C35.8435 92.021 36.6411 91.892 37.4134 91.6654C38.1785 91.4289 38.9048 91.0816 39.5691 90.6344C40.238 90.1887 40.8548 89.6692 41.4078 89.0858C41.9608 88.5218 42.3869 87.8462 42.6575 87.1042C42.7799 86.7411 42.8284 86.3572 42.8003 85.9751C42.7575 85.5946 42.6408 85.2262 42.4566 84.8905C42.0551 84.2175 41.4882 83.6583 40.8098 83.266C40.1321 82.8531 39.3687 82.6011 38.5783 82.5296C38.1985 82.4927 37.8152 82.5291 37.4491 82.6367C37.0891 82.7364 36.7663 82.9397 36.5208 83.2214C36.0456 83.8343 35.7726 84.5798 35.7398 85.3547C35.6647 86.1424 35.7205 86.9372 35.9049 87.7067C36.2932 89.2464 37.3108 90.5541 38.4444 91.6832C39.6229 92.7982 40.8674 93.8415 42.171 94.8073C44.7252 96.8212 47.5496 98.4663 50.5615 99.6943C56.6772 102.05 63.3501 102.56 69.7524 101.158C66.5674 101.921 63.2892 102.221 60.0186 102.051C58.3826 101.957 56.7562 101.738 55.1539 101.395C53.5467 101.062 51.969 100.599 50.4365 100.011C47.3865 98.806 44.5284 97.1627 41.9523 95.1331C40.6297 94.1698 39.3673 93.1265 38.1721 92.009C37.0073 90.862 35.9406 89.4964 35.4943 87.8406C35.2958 87.0202 35.2384 86.172 35.3247 85.3324C35.3675 84.4673 35.6796 83.6371 36.2173 82.9581C36.5156 82.6217 36.9046 82.3784 37.3376 82.2574C37.7559 82.1355 38.1937 82.0946 38.6274 82.1369C39.4741 82.2193 40.2908 82.494 41.0151 82.9402C41.7542 83.3713 42.3692 83.9863 42.8003 84.7254C43.0104 85.1073 43.141 85.5279 43.1841 85.9617C43.2172 86.3954 43.161 86.8314 43.019 87.2425C42.7325 88.0383 42.2756 88.7619 41.6801 89.3625C41.102 89.9598 40.4582 90.4898 39.761 90.9424C39.0584 91.3934 38.2929 91.7378 37.4893 91.9644C36.691 92.1879 35.8679 92.3109 35.0391 92.3304C33.3925 92.3304 31.7494 92.181 30.1298 91.8841C28.5186 91.6163 26.9075 91.3485 25.3097 90.9915C23.712 90.6344 22.1633 90.2417 20.6057 89.7552Z" fill="#9AB9D9"/>
<path d="M9.533 95.2536C9.533 95.2536 1.49957 96.1462 0 105.376C0 105.376 11.8895 100.984 9.533 95.2536ZM85.4756 115.551C85.4756 115.551 82.9317 120.532 87.4572 123.103C87.4572 123.103 88.5551 117.551 86.7476 114.703L85.4756 115.551ZM122.362 112.824C122.362 112.824 119.109 119.032 123.634 121.978C123.634 121.978 125.933 115.511 123.929 113.458L123.612 113.489L122.362 112.824ZM47.5713 75.0943C47.5713 75.0943 41.5462 73.6751 37.65 78.3746C37.65 78.3746 48.2541 79.2404 47.5713 75.0943ZM81.8472 87.1756C81.8472 87.1756 78.674 80.7132 73.8539 83.6454C73.8539 83.6454 79.1605 90.2595 81.8472 87.1756ZM109.75 89.7998C109.75 89.7998 111.852 82.8465 115.186 83.7079C115.186 83.7079 113.401 89.9917 110.205 91.2369L110.326 90.7906L109.75 89.7998ZM106.041 78.1023C106.041 78.1023 102.279 76.1922 106.041 69.1764C106.041 69.1451 109.79 76.4153 106.041 78.1023ZM107.626 53.6541C107.626 53.6541 103.765 53.0293 101.569 58.8936C101.569 58.9115 108.197 57.4208 107.626 53.6541ZM130.445 63.0844C130.445 63.0844 125.71 63.3611 124.264 70.2252C124.264 70.2252 131.695 68.8863 131.404 64.6152L130.445 63.0844ZM73.8495 40.6132C73.8495 40.6132 68.2796 35.097 62.2456 40.1312C62.2278 40.1223 69.623 45.9688 73.8495 40.6132ZM108.268 36.2707C108.268 36.2707 101.917 34.9318 99.0253 40.2874C99.0253 40.2874 107.648 41.5594 109.603 37.1142L108.268 36.2707ZM122.063 24.7696C122.063 24.7696 117.422 20.7529 112.691 23.1138C112.682 23.1138 117.333 29.7191 122.063 24.7696ZM167.524 26.6485C167.524 26.6485 160.856 25.2828 158.74 32.1335C158.74 32.1335 164.203 33.7179 167.524 26.6485ZM170.817 57.7243C170.817 57.7243 167.001 60.8484 168.006 64.4456C168.006 64.4456 173.459 62.7987 173.183 57.3985L171.92 57.7243H170.817ZM209.222 51.9403C209.222 51.9403 209.378 48.7403 205.602 47.9772C205.602 47.9772 205.41 53.0069 209.222 51.9403ZM201.21 116.252C201.21 116.252 197.033 117.801 198.533 121.442C198.533 121.442 202.701 120.037 203.322 116.457L202.991 116.297L201.21 116.252Z" fill="#439916"/>
<path d="M219.192 89.5276C217.301 91.4201 215.205 93.0966 212.944 94.5262C214.835 92.6336 216.93 90.9571 219.192 89.5276ZM136.782 60.9243C136.836 62.473 136.863 64.0484 136.898 65.5747L136.965 70.2296L136.939 70.1359L139.103 73.6126L141.254 77.0937C141.271 77.1224 141.282 77.1543 141.286 77.1874L141.732 83.1902L141.71 83.1143L144.039 87.488L145.186 89.6838L146.32 91.8885L145.066 89.7508L143.825 87.6041L141.375 83.2973C141.363 83.2749 141.356 83.2508 141.352 83.2259L140.848 77.2098L140.879 77.3079L138.751 73.8134L136.626 70.3144C136.61 70.286 136.602 70.2534 136.604 70.2207L136.671 65.5658C136.702 64.0261 136.729 62.4819 136.782 60.9243ZM183.506 112.512C182.613 113.436 181.698 114.351 180.77 115.243L179.386 116.582L177.98 117.921C177.96 117.94 177.936 117.955 177.91 117.964C177.884 117.973 177.856 117.977 177.829 117.975L176.99 117.894L177.204 117.769L176.7 118.943C176.7 118.954 176.7 118.964 176.7 118.974C176.213 119.711 175.709 120.434 175.209 121.161C174.709 121.889 174.223 122.621 173.709 123.344L172.179 125.504C171.656 126.213 171.143 126.932 170.608 127.633C171.054 126.874 171.531 126.129 171.991 125.374L173.415 123.143C173.892 122.402 174.388 121.67 174.87 120.934C175.352 120.197 175.838 119.456 176.338 118.729L176.316 118.765L176.842 117.6C176.861 117.56 176.892 117.527 176.93 117.505C176.968 117.483 177.013 117.474 177.057 117.479L177.891 117.573L177.731 117.622L179.159 116.319L180.605 115.038C181.551 114.181 182.518 113.339 183.506 112.512ZM181.595 72.9164C181.243 73.327 180.886 73.7286 180.524 74.1303C180.163 74.532 179.806 74.9426 179.44 75.3398L177.24 77.7275L177.275 77.6784L176.244 79.8117C176.223 79.8558 176.187 79.8907 176.142 79.9099L174.124 80.7801L174.245 80.6552L173.263 83.1455C172.933 83.9756 172.611 84.8102 172.268 85.6359C171.589 87.2872 170.907 88.934 170.179 90.5675C170.737 88.8715 171.339 87.189 171.964 85.5109C172.259 84.6674 172.585 83.8373 172.897 83.0027L173.843 80.4945C173.854 80.4673 173.87 80.4425 173.891 80.4218C173.912 80.401 173.936 80.3848 173.964 80.374L175.99 79.526L175.883 79.6287L176.945 77.5132C176.951 77.4958 176.962 77.4804 176.976 77.4686L179.27 75.1746C179.654 74.7908 180.047 74.4204 180.435 74.041C180.823 73.6617 181.198 73.2868 181.595 72.9164ZM204.076 98.3063C203.67 98.7972 203.254 99.2792 202.844 99.7612C202.433 100.243 202.018 100.73 201.599 101.203C201.582 101.22 201.56 101.233 201.536 101.238C200.282 101.551 199.037 101.886 197.778 102.185L197.894 102.104L196.109 104.889C195.52 105.818 194.909 106.737 194.297 107.656C194.283 107.68 194.263 107.7 194.239 107.714L192.133 109.089C191.432 109.535 190.713 109.981 190.008 110.428C189.303 110.874 188.593 111.32 187.879 111.767C187.165 112.213 186.451 112.659 185.728 113.074C186.407 112.579 187.094 112.101 187.777 111.615C188.46 111.128 189.156 110.66 189.843 110.178C190.53 109.696 191.218 109.218 191.918 108.759L194.007 107.357L193.949 107.42C194.543 106.491 195.136 105.559 195.734 104.644L197.56 101.886C197.588 101.847 197.629 101.818 197.676 101.805C198.934 101.52 200.202 101.261 201.469 100.989L201.402 101.024C201.849 100.578 202.295 100.132 202.741 99.6586C203.188 99.1855 203.625 98.7571 204.076 98.3063ZM163.926 192.4C164.774 189.664 165.68 186.946 166.582 184.228L167.974 180.162C168.421 178.823 168.898 177.453 169.385 176.105V176.074L171.567 172.356V172.526C171.259 171.807 170.969 171.075 170.674 170.352L169.782 168.179C169.187 166.724 168.61 165.268 168.05 163.81C168.717 165.229 169.37 166.653 170.009 168.081L170.969 170.227C171.286 170.941 171.612 171.656 171.92 172.374C171.933 172.401 171.94 172.431 171.94 172.461C171.94 172.491 171.933 172.521 171.92 172.548L169.777 176.288V176.252C169.331 177.591 168.84 178.957 168.358 180.305L166.917 184.348C165.948 187.039 164.966 189.731 163.926 192.4ZM145.271 116.252L149.096 118.278L152.912 120.318C152.929 120.326 152.943 120.341 152.952 120.358L156.116 125.267L159.33 129.516C159.346 129.538 159.357 129.564 159.364 129.59C159.37 129.617 159.37 129.645 159.365 129.672L157.942 138.504V138.433C158.593 142.749 159.28 147.06 159.91 151.376C160.539 155.691 161.182 160.016 161.771 164.341C161.008 160.043 160.289 155.736 159.584 151.429C158.879 147.122 158.2 142.807 157.504 138.487V138.415L158.972 129.587L159.008 129.739L155.831 125.437L152.742 120.501L152.787 120.545L149.024 118.412L145.271 116.252ZM150.171 198.242C151.479 197.023 152.791 195.805 154.121 194.609C155.451 193.413 156.768 192.203 158.111 191.038L158.044 191.154L158.906 186.009L159.798 180.872C160.093 179.158 160.432 177.453 160.749 175.739C161.066 174.025 161.409 172.325 161.757 170.62C161.519 172.343 161.268 174.064 161.003 175.784C160.731 177.502 160.481 179.225 160.186 180.939L159.33 186.071L158.437 191.208C158.43 191.253 158.408 191.293 158.374 191.324C157.036 192.498 155.656 193.649 154.295 194.81C152.934 195.97 151.555 197.108 150.171 198.242ZM154.135 96.7086C154.84 97.8422 155.505 98.9981 156.161 100.163C156.817 101.328 157.451 102.497 158.08 103.671C158.709 104.845 159.321 106.032 159.91 107.241L160.802 109.026C161.083 109.633 161.374 110.231 161.641 110.847C161.284 110.281 160.954 109.7 160.61 109.129L159.615 107.393C158.955 106.233 158.325 105.059 157.696 103.881C157.067 102.702 156.455 101.52 155.866 100.31C155.277 99.1007 154.679 97.927 154.135 96.7086ZM141.558 115.417C139.67 115.016 137.795 114.552 135.925 114.079C134.055 113.605 132.194 113.092 130.338 112.57C130.307 112.562 130.279 112.547 130.255 112.526C130.231 112.505 130.212 112.479 130.199 112.45C129.914 111.722 129.619 111.004 129.343 110.272L129.526 110.379L127.142 110.638C126.348 110.704 125.553 110.789 124.755 110.847C125.54 110.687 126.326 110.562 127.115 110.401L129.481 110.022C129.517 110.015 129.554 110.021 129.586 110.038C129.618 110.055 129.644 110.082 129.659 110.115C129.981 110.829 130.28 111.548 130.588 112.262L130.449 112.137C132.315 112.637 134.176 113.141 136.028 113.681C137.88 114.221 139.728 114.806 141.558 115.417ZM122.095 111.481C121.5 110.868 120.925 110.246 120.372 109.616C119.81 108.982 119.238 108.357 118.689 107.714L118.823 107.781C117.038 107.661 115.253 107.505 113.494 107.335C112.602 107.25 111.709 107.139 110.817 107.036C109.924 106.933 109.031 106.804 108.166 106.67C109.058 106.67 109.951 106.719 110.843 106.773C111.736 106.826 112.629 106.862 113.521 106.933C115.306 107.058 117.083 107.207 118.85 107.38C118.9 107.388 118.946 107.413 118.979 107.451C119.515 108.107 120.028 108.79 120.55 109.446C121.073 110.102 121.595 110.798 122.095 111.481ZM130.927 54.2566C131.775 55.4528 132.556 56.6954 133.266 57.9787C133.991 59.2521 134.642 60.5664 135.216 61.9151C134.363 60.7216 133.583 59.4787 132.877 58.1929C132.152 56.9196 131.5 55.6053 130.927 54.2566ZM167.836 95.1867C167.669 97.7693 167.491 100.35 167.3 102.93L166.702 110.682C166.702 110.713 166.693 110.742 166.676 110.767L165.002 113.36V113.141L168.023 117.966C168.048 118.009 168.059 118.059 168.055 118.109L167.283 124.214C167.024 126.249 166.778 128.289 166.502 130.319L165.689 136.42L164.828 142.512L165.471 136.393L166.158 130.279C166.381 128.24 166.64 126.204 166.881 124.165L167.613 118.055L167.644 118.202L164.658 113.36C164.637 113.328 164.625 113.29 164.625 113.251C164.625 113.212 164.637 113.174 164.658 113.141L166.345 110.557L166.314 110.642L167.046 102.917C167.296 100.337 167.559 97.7603 167.836 95.1867ZM147.815 90.5675L149.056 94.3075L150.265 98.0519C150.662 99.3016 151.073 100.551 151.457 101.805L152.626 105.563L152.586 105.487L154.951 108.236L157.294 110.999C157.325 111.033 157.343 111.078 157.343 111.124L157.513 114.694L157.656 118.265C157.754 120.635 157.825 123.009 157.883 125.379C157.693 122.999 157.522 120.632 157.37 118.278L157.138 114.708L156.937 111.137L156.986 111.262L154.617 108.518L152.265 105.773C152.247 105.75 152.233 105.724 152.224 105.697L151.086 101.926C150.703 100.672 150.345 99.4087 149.975 98.1501L148.877 94.3699L147.815 90.5675ZM165.332 144.155C165.1 145.047 164.846 145.94 164.605 146.832C164.364 147.725 164.096 148.595 163.842 149.479V149.416C164.074 151.09 164.266 152.768 164.466 154.451C164.667 156.133 164.859 157.807 165.033 159.489C165.207 161.172 165.39 162.85 165.538 164.537C165.685 166.224 165.841 167.902 165.962 169.589C165.707 167.92 165.466 166.246 165.252 164.568C165.038 162.89 164.806 161.212 164.623 159.534C164.44 157.856 164.225 156.178 164.051 154.495C163.877 152.813 163.69 151.135 163.538 149.448C163.534 149.429 163.534 149.409 163.538 149.39C163.828 148.519 164.109 147.645 164.431 146.779C164.752 145.913 165.02 145.007 165.332 144.155ZM168.626 127.017C169.944 129.26 171.246 131.518 172.531 133.792C172.538 133.818 172.538 133.846 172.531 133.872C172.308 135.987 172.085 138.098 171.83 140.209L171.098 146.547L170.317 152.88C170.068 154.991 169.777 157.097 169.501 159.204V159.164L170.139 162.654L170.755 166.144L169.983 162.68L169.237 159.217C169.235 159.204 169.235 159.19 169.237 159.177C169.465 157.062 169.684 154.946 169.934 152.835L170.661 146.498L171.438 140.169C171.692 138.058 171.969 135.952 172.25 133.841V133.93C171.036 131.636 169.828 129.332 168.626 127.017ZM173.526 154.79C174.419 157.744 175.312 160.712 176.164 163.685C177.016 166.657 177.851 169.638 178.695 172.611C178.705 172.646 178.706 172.684 178.697 172.72C178.688 172.756 178.671 172.789 178.645 172.816C177.824 173.709 176.99 174.601 176.164 175.471L176.213 175.275C176.766 177.565 177.347 179.85 177.873 182.148C178.4 184.446 178.94 186.74 179.435 189.048C178.788 186.781 178.172 184.505 177.57 182.224C176.967 179.943 176.387 177.663 175.785 175.378C175.777 175.343 175.777 175.307 175.787 175.273C175.796 175.238 175.814 175.207 175.838 175.181C176.659 174.289 177.481 173.396 178.311 172.504L178.262 172.709C177.454 169.723 176.619 166.746 175.834 163.756C175.048 160.766 174.272 157.793 173.526 154.79ZM169.853 180.113C170.502 180.961 171.134 181.822 171.75 182.697C171.768 182.721 171.776 182.752 171.772 182.782C171.697 184.46 171.576 186.133 171.447 187.807C171.317 189.481 171.161 191.154 170.965 192.824C170.961 192.852 170.949 192.879 170.929 192.899C170.55 193.306 170.179 193.716 169.786 194.113C169.394 194.511 169.019 194.917 168.622 195.309C168.961 194.863 169.309 194.417 169.652 193.997C169.996 193.578 170.358 193.136 170.71 192.707L170.67 192.792C170.746 191.11 170.875 189.436 171.005 187.762C171.134 186.089 171.295 184.42 171.487 182.751L171.514 182.84C170.942 181.944 170.389 181.035 169.853 180.113Z" fill="#3C7FC2"/>
<path d="M174.133 175.842C174.187 178.234 174.236 180.626 174.263 183.018C174.29 185.41 174.33 187.803 174.33 190.195L174.249 190.039L176.708 191.873L179.168 193.716C179.971 194.35 180.823 194.917 181.649 195.501C182.475 196.086 183.3 196.715 184.126 197.322H184.09L192.195 200L184.019 197.541C184.01 197.544 184.001 197.544 183.992 197.541C183.14 196.974 182.269 196.425 181.43 195.84C180.591 195.256 179.721 194.707 178.913 194.078L176.463 192.217L174.017 190.355C173.994 190.337 173.975 190.313 173.962 190.286C173.949 190.259 173.942 190.229 173.941 190.199C173.941 187.807 173.986 185.415 174.008 183.023C174.031 180.631 174.057 178.247 174.133 175.842ZM186.643 68.2838C187.112 67.7884 187.598 67.3064 188.076 66.8199C188.553 66.3334 189.044 65.8604 189.531 65.3828C189.548 65.3663 189.568 65.3537 189.59 65.346C189.613 65.3383 189.637 65.3356 189.66 65.3382C191.115 65.5658 192.561 65.838 194.007 66.1103C195.453 66.3825 196.899 66.6726 198.341 66.9761H198.225C199.671 66.3156 201.117 65.6372 202.589 65.0481C201.206 65.8336 199.796 66.57 198.385 67.3019C198.35 67.3126 198.313 67.3126 198.278 67.3019C196.828 67.0564 195.382 66.7887 193.936 66.512C192.49 66.2353 191.044 65.9452 189.607 65.6194L189.749 65.5792C189.236 66.0255 188.727 66.4718 188.205 66.9181C187.683 67.3644 187.174 67.8375 186.643 68.2838Z" fill="#3C7FC2"/>
<path d="M116.105 199.447C120.956 199.447 124.888 192.633 124.888 184.228C124.888 175.823 120.956 169.009 116.105 169.009C111.254 169.009 107.322 175.823 107.322 184.228C107.322 192.633 111.254 199.447 116.105 199.447Z" stroke="#FF5061" stroke-linecap="round" stroke-linejoin="round"/>
<path d="M123.625 190.922C124.875 188.039 123.933 186.272 123.933 184.228C123.933 179.93 122.496 175.065 119.917 172.013C119.226 174.198 118.858 176.473 118.823 178.765C118.85 183.063 121.077 187.892 123.625 190.922Z" fill="#FF5061"/>
<path d="M129.619 194.015C134.47 194.015 138.402 187.201 138.402 178.796C138.402 170.391 134.47 163.577 129.619 163.577C124.768 163.577 120.836 170.391 120.836 178.796C120.836 187.201 124.768 194.015 129.619 194.015Z" fill="white"/>
<path d="M108.054 184.705C108.054 186.406 107.367 187.762 108.308 190.061C112.325 186.843 115.373 181.438 115.373 175.877C115.322 173.917 115.037 171.969 114.525 170.075C110.486 173.262 108.054 179.144 108.054 184.705Z" fill="#FF5061"/>
<path d="M105.024 190.217C109.875 190.217 113.807 183.403 113.807 174.998C113.807 166.593 109.875 159.78 105.024 159.78C100.173 159.78 96.2407 166.593 96.2407 174.998C96.2407 183.403 100.173 190.217 105.024 190.217Z" fill="white"/>
<path d="M116.105 199.446V176.627M116.105 185.562L112.548 181.496M116.105 190.418L110.982 184.558M116.105 195.425L110.812 189.369M116.105 185.575L120.421 180.639M116.105 190.431L121.398 184.375M116.105 195.434L121.398 189.382" stroke="#FF5061" stroke-linecap="round" stroke-linejoin="round"/>
<path d="M105.024 190.217C109.875 190.217 113.807 183.403 113.807 174.998C113.807 166.593 109.875 159.78 105.024 159.78C100.173 159.78 96.2407 166.593 96.2407 174.998C96.2407 183.403 100.173 190.217 105.024 190.217Z" stroke="#439916" stroke-linecap="round" stroke-linejoin="round"/>
<path d="M105.019 167.393V199.509M105.024 176.333L100.717 171.41M105.024 181.188L99.7261 175.137M105.024 186.196L99.7261 180.14M105.024 176.346L109.335 171.41M105.024 181.197L110.317 175.146M105.024 186.205L110.317 180.153" stroke="#439916" stroke-linecap="round" stroke-linejoin="round"/>
<path d="M129.619 194.015C134.47 194.015 138.402 187.201 138.402 178.796C138.402 170.391 134.47 163.577 129.619 163.577C124.768 163.577 120.836 170.391 120.836 178.796C120.836 187.201 124.768 194.015 129.619 194.015Z" stroke="#3C7FC2" stroke-linecap="round" stroke-linejoin="round"/>
<path d="M129.619 171.191V199.509M129.619 180.131L125.312 175.208M129.619 184.987L124.326 178.935M129.619 189.99L124.326 183.938M129.619 180.14L133.935 175.208M129.619 184.995L134.912 178.944M129.619 189.998L134.912 183.947" stroke="#3C7FC2" stroke-linecap="round" stroke-linejoin="round"/>
<path d="M37.7612 199.509H229" stroke="#464646" stroke-linecap="round" stroke-linejoin="round"/>
</svg>
