<svg width="240" height="161" viewBox="0 0 240 161" fill="none" xmlns="http://www.w3.org/2000/svg">
<path d="M143.508 60.6734L136.771 69.9458L98.0282 41.2134L105.475 33.0228L143.508 60.6734Z" fill="#04294E" fill-opacity="0.87"/>
<path d="M36.5507 80.1771L28.6024 71.9197L70.5521 32.2044L77.1387 41.1365L36.5507 80.1771Z" fill="#04294E" fill-opacity="0.87"/>
<path d="M171.763 65.4258L164.334 58.2448L202.432 26.6119L208.392 35.94L171.763 65.4258Z" fill="#04294E" fill-opacity="0.87"/>
<path d="M19.2416 126.501C19.2416 123.7 21.5117 121.43 24.312 121.43C27.1123 121.43 29.3824 123.7 29.3824 126.501V155.623C29.3824 158.423 27.1123 160.693 24.312 160.693C21.5117 160.693 19.2416 158.423 19.2416 155.623V126.501Z" fill="#0076EB"/>
<path d="M51.7443 85.1571C51.7443 82.3568 54.0144 80.0867 56.8147 80.0867C59.615 80.0867 61.8852 82.3568 61.8852 85.1571V155.623C61.8852 158.423 59.615 160.693 56.8147 160.693C54.0144 160.693 51.7443 158.423 51.7443 155.623V85.1571Z" fill="#04294E" fill-opacity="0.87"/>
<path d="M84.247 62.7952C84.247 59.9949 86.5171 57.7248 89.3174 57.7248C92.1178 57.7248 94.3879 59.9949 94.3879 62.7952V155.623C94.3879 158.423 92.1178 160.693 89.3174 160.693C86.5171 160.693 84.247 158.423 84.247 155.623V62.7952Z" fill="#0076EB"/>
<path d="M116.75 85.1571C116.75 82.3568 119.02 80.0867 121.82 80.0867C124.62 80.0867 126.891 82.3568 126.891 85.1571V155.623C126.891 158.423 124.62 160.693 121.82 160.693C119.02 160.693 116.75 158.423 116.75 155.623V85.1571Z" fill="#04294E" fill-opacity="0.87"/>
<path d="M149.252 126.501C149.252 123.7 151.523 121.43 154.323 121.43C157.123 121.43 159.393 123.7 159.393 126.501V155.623C159.393 158.423 157.123 160.693 154.323 160.693C151.523 160.693 149.252 158.423 149.252 155.623V126.501Z" fill="#0076EB"/>
<path d="M181.755 85.1571C181.755 82.3568 184.025 80.0867 186.826 80.0867C189.626 80.0867 191.896 82.3568 191.896 85.1571V155.623C191.896 158.423 189.626 160.693 186.826 160.693C184.025 160.693 181.755 158.423 181.755 155.623V85.1571Z" fill="#04294E" fill-opacity="0.87"/>
<path d="M214.258 62.7952C214.258 59.9949 216.528 57.7248 219.328 57.7248C222.129 57.7248 224.399 59.9949 224.399 62.7952V155.623C224.399 158.423 222.129 160.693 219.328 160.693C216.528 160.693 214.258 158.423 214.258 155.623V62.7952Z" fill="#0076EB"/>
<path d="M240 22.2319C240 34.5102 229.755 44.4637 217.118 44.4637C204.481 44.4637 194.236 34.5102 194.236 22.2319C194.236 9.95354 204.481 0 217.118 0C229.755 0 240 9.95354 240 22.2319ZM203.962 22.2319C203.962 29.2911 209.852 35.0137 217.118 35.0137C224.384 35.0137 230.274 29.2911 230.274 22.2319C230.274 15.1726 224.384 9.44997 217.118 9.44997C209.852 9.44997 203.962 15.1726 203.962 22.2319Z" fill="#04294E" fill-opacity="0.87"/>
<path d="M177.075 70.0758C177.075 82.3542 166.83 92.3077 154.193 92.3077C141.556 92.3077 131.311 82.3542 131.311 70.0758C131.311 57.7975 141.556 47.844 154.193 47.844C166.83 47.844 177.075 57.7975 177.075 70.0758ZM141.037 70.0758C141.037 77.1351 146.927 82.8577 154.193 82.8577C161.458 82.8577 167.348 77.1351 167.348 70.0758C167.348 63.0166 161.458 57.294 154.193 57.294C146.927 57.294 141.037 63.0166 141.037 70.0758Z" fill="#04294E" fill-opacity="0.87"/>
<path d="M107.649 24.312C107.649 36.5903 97.4044 46.5439 84.7671 46.5439C72.1297 46.5439 61.8852 36.5903 61.8852 24.312C61.8852 12.0337 72.1297 2.08017 84.7671 2.08017C97.4044 2.08017 107.649 12.0337 107.649 24.312ZM71.6114 24.312C71.6114 31.3713 77.5014 37.0939 84.7671 37.0939C92.0327 37.0939 97.9227 31.3713 97.9227 24.312C97.9227 17.2528 92.0327 11.5301 84.7671 11.5301C77.5014 11.5301 71.6114 17.2528 71.6114 24.312Z" fill="#04294E" fill-opacity="0.87"/>
<path d="M45.7638 92.1777C45.7638 104.456 35.5192 114.41 22.8819 114.41C10.2446 114.41 0 104.456 0 92.1777C0 79.8994 10.2446 69.9458 22.8819 69.9458C35.5192 69.9458 45.7638 79.8994 45.7638 92.1777ZM9.72628 92.1777C9.72628 99.2369 15.6163 104.96 22.8819 104.96C30.1476 104.96 36.0375 99.2369 36.0375 92.1777C36.0375 85.1184 30.1476 79.3958 22.8819 79.3958C15.6163 79.3958 9.72628 85.1184 9.72628 92.1777Z" fill="#04294E" fill-opacity="0.87"/>
</svg>
