<svg width="248" height="250" viewBox="0 0 248 250" fill="none" xmlns="http://www.w3.org/2000/svg">
<g clip-path="url(#clip0_3_814)">
<path d="M43.1438 84.5842L112.428 44.9939V67.7885H138.672V16.3499H63.0898V33.1455H91.4331L0.104004 84.5842L178.563 189.56L100.881 234.699L123.975 249.396L222.653 189.56L43.1438 84.5842Z" fill="#234F80"/>
<path d="M198.508 101.38V118.177L222.653 132.873V116.077L198.508 101.38Z" fill="#F03939"/>
<path d="M222.653 132.873V116.077L247.847 101.38V118.177L222.653 132.873Z" fill="#9E1E23"/>
<path d="M173.314 116.077V132.873L198.508 118.177V101.38L173.314 116.077Z" fill="#9E1E23"/>
<path d="M148.12 101.38V118.177L173.314 132.873V116.077L148.12 101.38Z" fill="#F03939"/>
<path d="M148.12 73.0371V89.8333L173.314 103.48V86.684" fill="#F03939"/>
<path d="M222.653 87.7336V104.53L247.847 89.8333V73.0371L222.653 87.7336Z" fill="#9E1E23"/>
<path d="M247.847 73.037L222.653 59.3896L198.508 73.037L173.314 59.3896L148.12 73.037L173.314 86.6839L148.12 101.38L173.314 116.077L198.508 101.38L222.653 116.077L247.847 101.38L222.653 87.7335L247.847 73.037Z" fill="#FF5F4F"/>
<path d="M138.672 56.241H112.428V67.7891H138.672V56.241Z" fill="#234F80"/>
<path d="M91.4332 21.5989H63.0898V33.146H91.4332V21.5989Z" fill="#234F80"/>
<path d="M0.104004 73.0371V84.5843L178.563 189.56V178.013L0.104004 73.0371Z" fill="#0177ED"/>
<path d="M123.976 237.848V249.396L222.653 189.56V178.013L123.976 237.848Z" fill="#234F80"/>
<path d="M100.881 223.152V234.699L123.976 249.396V237.848L100.881 223.152Z" fill="#0177ED"/>
<path d="M43.1438 73.037L112.428 33.4457V56.2408H138.672V0.60376H63.0898V21.5989H91.7323L0.104004 73.037L178.563 178.013L100.881 223.152L123.975 237.848L222.653 178.013L43.1438 73.037Z" fill="#3198FF"/>
<path d="M85.9765 172.052C77.4265 164.231 63.3159 159.117 47.3432 159.117C31.3025 159.117 17.1393 164.274 8.6009 172.151L0.104004 171.714V187.461C0.104004 204.274 21.2532 217.904 47.3432 217.904C73.4322 217.904 94.5824 204.274 94.5824 187.461V171.714L85.9765 172.052Z" fill="#F9A21B"/>
<path d="M47.3432 200.058C73.4327 200.058 94.5824 186.428 94.5824 169.614C94.5824 152.801 73.4327 139.171 47.3432 139.171C21.2537 139.171 0.104004 152.801 0.104004 169.614C0.104004 186.428 21.2537 200.058 47.3432 200.058Z" fill="#FFBE55"/>
<path d="M47.3432 182.736C61.8375 182.736 73.5873 175.921 73.5873 167.515C73.5873 159.108 61.8375 152.294 47.3432 152.294C32.849 152.294 21.0991 159.108 21.0991 167.515C21.0991 175.921 32.849 182.736 47.3432 182.736Z" fill="#F9A21B"/>
</g>
<defs>
<clipPath id="clip0_3_814">
<rect width="247.951" height="250" fill="white"/>
</clipPath>
</defs>
</svg>
